<mxfile host="app.diagrams.net" modified="2024-01-11T17:48:14.689Z" agent="Mozilla/5.0 (Macintosh; Intel Mac OS X 10_15_7) AppleWebKit/537.36 (KHTML, like Gecko) Chrome/120.0.0.0 Safari/537.36" etag="srerN7e-12R5JV2Wgj56" version="22.1.18" type="github">
  <diagram name="Page-1" id="g8kd3u3a0-bAyPNDsPi0">
    <mxGraphModel dx="2074" dy="1186" grid="0" gridSize="10" guides="1" tooltips="1" connect="1" arrows="1" fold="1" page="0" pageScale="1" pageWidth="827" pageHeight="1169" math="0" shadow="0">
      <root>
        <mxCell id="0" />
        <mxCell id="1" parent="0" />
        <mxCell id="67OT6ql0mRP8qZp6wruK-22" style="edgeStyle=orthogonalEdgeStyle;rounded=0;orthogonalLoop=1;jettySize=auto;html=1;exitX=1;exitY=0.5;exitDx=0;exitDy=0;entryX=0.5;entryY=0;entryDx=0;entryDy=0;" parent="1" source="67OT6ql0mRP8qZp6wruK-16" target="67OT6ql0mRP8qZp6wruK-8" edge="1">
          <mxGeometry relative="1" as="geometry" />
        </mxCell>
        <mxCell id="67OT6ql0mRP8qZp6wruK-23" value="Cancel" style="edgeLabel;html=1;align=center;verticalAlign=middle;resizable=0;points=[];" parent="67OT6ql0mRP8qZp6wruK-22" vertex="1" connectable="0">
          <mxGeometry x="0.4375" y="1" relative="1" as="geometry">
            <mxPoint as="offset" />
          </mxGeometry>
        </mxCell>
        <mxCell id="67OT6ql0mRP8qZp6wruK-16" value="" style="rounded=0;whiteSpace=wrap;html=1;" parent="1" vertex="1">
          <mxGeometry y="100" width="280" height="320" as="geometry" />
        </mxCell>
        <mxCell id="67OT6ql0mRP8qZp6wruK-11" style="edgeStyle=orthogonalEdgeStyle;rounded=0;orthogonalLoop=1;jettySize=auto;html=1;exitX=0.5;exitY=1;exitDx=0;exitDy=0;entryX=0.5;entryY=0;entryDx=0;entryDy=0;" parent="1" source="67OT6ql0mRP8qZp6wruK-2" target="67OT6ql0mRP8qZp6wruK-3" edge="1">
          <mxGeometry relative="1" as="geometry" />
        </mxCell>
        <mxCell id="67OT6ql0mRP8qZp6wruK-2" value="start" style="ellipse;whiteSpace=wrap;html=1;" parent="1" vertex="1">
          <mxGeometry x="115" y="20" width="50" height="50" as="geometry" />
        </mxCell>
        <mxCell id="67OT6ql0mRP8qZp6wruK-9" style="edgeStyle=orthogonalEdgeStyle;rounded=0;orthogonalLoop=1;jettySize=auto;html=1;exitX=0.5;exitY=1;exitDx=0;exitDy=0;entryX=0.5;entryY=0;entryDx=0;entryDy=0;" parent="1" source="67OT6ql0mRP8qZp6wruK-3" target="67OT6ql0mRP8qZp6wruK-5" edge="1">
          <mxGeometry relative="1" as="geometry" />
        </mxCell>
        <mxCell id="67OT6ql0mRP8qZp6wruK-10" value="Send to Supplier&lt;br&gt;Actions: Assign to Supplier" style="edgeLabel;html=1;align=center;verticalAlign=middle;resizable=0;points=[];" parent="67OT6ql0mRP8qZp6wruK-9" vertex="1" connectable="0">
          <mxGeometry x="-0.25" relative="1" as="geometry">
            <mxPoint as="offset" />
          </mxGeometry>
        </mxCell>
        <mxCell id="67OT6ql0mRP8qZp6wruK-3" value="Pending" style="rounded=0;whiteSpace=wrap;html=1;" parent="1" vertex="1">
          <mxGeometry x="80" y="120" width="120" height="40" as="geometry" />
        </mxCell>
        <mxCell id="67OT6ql0mRP8qZp6wruK-12" style="edgeStyle=orthogonalEdgeStyle;rounded=0;orthogonalLoop=1;jettySize=auto;html=1;exitX=0.5;exitY=1;exitDx=0;exitDy=0;entryX=0.5;entryY=0;entryDx=0;entryDy=0;" parent="1" source="67OT6ql0mRP8qZp6wruK-5" target="67OT6ql0mRP8qZp6wruK-6" edge="1">
          <mxGeometry relative="1" as="geometry" />
        </mxCell>
        <mxCell id="67OT6ql0mRP8qZp6wruK-13" value="Dispatch" style="edgeLabel;html=1;align=center;verticalAlign=middle;resizable=0;points=[];" parent="67OT6ql0mRP8qZp6wruK-12" vertex="1" connectable="0">
          <mxGeometry relative="1" as="geometry">
            <mxPoint as="offset" />
          </mxGeometry>
        </mxCell>
        <mxCell id="67OT6ql0mRP8qZp6wruK-5" value="In Progress" style="rounded=0;whiteSpace=wrap;html=1;" parent="1" vertex="1">
          <mxGeometry x="80" y="240" width="120" height="40" as="geometry" />
        </mxCell>
        <mxCell id="67OT6ql0mRP8qZp6wruK-14" style="edgeStyle=orthogonalEdgeStyle;rounded=0;orthogonalLoop=1;jettySize=auto;html=1;exitX=0.5;exitY=1;exitDx=0;exitDy=0;" parent="1" source="67OT6ql0mRP8qZp6wruK-6" target="67OT6ql0mRP8qZp6wruK-7" edge="1">
          <mxGeometry relative="1" as="geometry" />
        </mxCell>
        <mxCell id="67OT6ql0mRP8qZp6wruK-15" value="Recieved" style="edgeLabel;html=1;align=center;verticalAlign=middle;resizable=0;points=[];" parent="67OT6ql0mRP8qZp6wruK-14" vertex="1" connectable="0">
          <mxGeometry x="-0.05" y="-1" relative="1" as="geometry">
            <mxPoint as="offset" />
          </mxGeometry>
        </mxCell>
        <mxCell id="67OT6ql0mRP8qZp6wruK-6" value="Dispatched" style="rounded=0;whiteSpace=wrap;html=1;" parent="1" vertex="1">
          <mxGeometry x="80" y="360" width="120" height="40" as="geometry" />
        </mxCell>
        <mxCell id="67OT6ql0mRP8qZp6wruK-7" value="Complete" style="rounded=0;whiteSpace=wrap;html=1;" parent="1" vertex="1">
          <mxGeometry x="80" y="480" width="120" height="40" as="geometry" />
        </mxCell>
        <mxCell id="67OT6ql0mRP8qZp6wruK-8" value="Cancelled" style="rounded=0;whiteSpace=wrap;html=1;" parent="1" vertex="1">
          <mxGeometry x="320" y="360" width="120" height="40" as="geometry" />
        </mxCell>
        <mxCell id="67OT6ql0mRP8qZp6wruK-19" value="Open" style="text;html=1;strokeColor=none;fillColor=none;align=center;verticalAlign=middle;whiteSpace=wrap;rounded=0;" parent="1" vertex="1">
          <mxGeometry y="100" width="60" height="30" as="geometry" />
        </mxCell>
        <mxCell id="67OT6ql0mRP8qZp6wruK-20" value="Asset Ordering" style="text;html=1;strokeColor=none;fillColor=none;align=center;verticalAlign=middle;rounded=0;fontSize=19;" parent="1" vertex="1">
          <mxGeometry x="115" y="-30" width="60" height="30" as="geometry" />
        </mxCell>
        <mxCell id="67OT6ql0mRP8qZp6wruK-24" value="Dealer Awards" style="text;html=1;strokeColor=none;fillColor=none;align=center;verticalAlign=middle;rounded=0;fontSize=19;" parent="1" vertex="1">
          <mxGeometry x="819" y="-222" width="60" height="30" as="geometry" />
        </mxCell>
        <mxCell id="67OT6ql0mRP8qZp6wruK-31" style="edgeStyle=orthogonalEdgeStyle;rounded=0;orthogonalLoop=1;jettySize=auto;html=1;exitX=0.5;exitY=1;exitDx=0;exitDy=0;entryX=0.5;entryY=0;entryDx=0;entryDy=0;" parent="1" source="67OT6ql0mRP8qZp6wruK-25" target="67OT6ql0mRP8qZp6wruK-26" edge="1">
          <mxGeometry relative="1" as="geometry" />
        </mxCell>
        <mxCell id="67OT6ql0mRP8qZp6wruK-32" value="Submit for Approval&lt;br&gt;Action: Escalate to role &quot;agency-user&quot;" style="edgeLabel;html=1;align=center;verticalAlign=middle;resizable=0;points=[];" parent="67OT6ql0mRP8qZp6wruK-31" vertex="1" connectable="0">
          <mxGeometry x="-0.36" y="-1" relative="1" as="geometry">
            <mxPoint x="1" y="9" as="offset" />
          </mxGeometry>
        </mxCell>
        <mxCell id="67OT6ql0mRP8qZp6wruK-25" value="start" style="ellipse;whiteSpace=wrap;html=1;" parent="1" vertex="1">
          <mxGeometry x="714" y="-172" width="50" height="50" as="geometry" />
        </mxCell>
        <mxCell id="67OT6ql0mRP8qZp6wruK-33" value="Approve&lt;br&gt;Action: Escalate to role: area-manager" style="edgeStyle=orthogonalEdgeStyle;rounded=0;orthogonalLoop=1;jettySize=auto;html=1;exitX=0.5;exitY=1;exitDx=0;exitDy=0;" parent="1" source="0Vi8RChmk7Yy_pR4jddX-1" target="67OT6ql0mRP8qZp6wruK-27" edge="1">
          <mxGeometry relative="1" as="geometry" />
        </mxCell>
        <mxCell id="67OT6ql0mRP8qZp6wruK-34" style="edgeStyle=orthogonalEdgeStyle;rounded=0;orthogonalLoop=1;jettySize=auto;html=1;exitX=1;exitY=0.5;exitDx=0;exitDy=0;entryX=0.75;entryY=0;entryDx=0;entryDy=0;" parent="1" source="0Vi8RChmk7Yy_pR4jddX-1" target="67OT6ql0mRP8qZp6wruK-30" edge="1">
          <mxGeometry relative="1" as="geometry" />
        </mxCell>
        <mxCell id="67OT6ql0mRP8qZp6wruK-35" value="Decline&lt;br&gt;Actions: Add a comment" style="edgeLabel;html=1;align=center;verticalAlign=middle;resizable=0;points=[];" parent="67OT6ql0mRP8qZp6wruK-34" vertex="1" connectable="0">
          <mxGeometry x="-0.2208" y="2" relative="1" as="geometry">
            <mxPoint x="-129" y="-24" as="offset" />
          </mxGeometry>
        </mxCell>
        <mxCell id="67OT6ql0mRP8qZp6wruK-26" value="Awaiting Agency Approval" style="rounded=0;whiteSpace=wrap;html=1;" parent="1" vertex="1">
          <mxGeometry x="679" y="-42" width="120" height="40" as="geometry" />
        </mxCell>
        <mxCell id="67OT6ql0mRP8qZp6wruK-36" style="edgeStyle=orthogonalEdgeStyle;rounded=0;orthogonalLoop=1;jettySize=auto;html=1;exitX=0.5;exitY=1;exitDx=0;exitDy=0;" parent="1" source="0Vi8RChmk7Yy_pR4jddX-4" target="67OT6ql0mRP8qZp6wruK-28" edge="1">
          <mxGeometry relative="1" as="geometry" />
        </mxCell>
        <mxCell id="67OT6ql0mRP8qZp6wruK-38" style="edgeStyle=orthogonalEdgeStyle;rounded=0;orthogonalLoop=1;jettySize=auto;html=1;exitX=1;exitY=0.5;exitDx=0;exitDy=0;entryX=0.5;entryY=0;entryDx=0;entryDy=0;" parent="1" source="0Vi8RChmk7Yy_pR4jddX-4" target="67OT6ql0mRP8qZp6wruK-30" edge="1">
          <mxGeometry relative="1" as="geometry" />
        </mxCell>
        <mxCell id="67OT6ql0mRP8qZp6wruK-39" value="Decline&lt;br style=&quot;border-color: var(--border-color);&quot;&gt;Actions: Add a comment" style="edgeLabel;html=1;align=center;verticalAlign=middle;resizable=0;points=[];" parent="67OT6ql0mRP8qZp6wruK-38" vertex="1" connectable="0">
          <mxGeometry x="-0.0056" y="1" relative="1" as="geometry">
            <mxPoint x="-119" y="-32" as="offset" />
          </mxGeometry>
        </mxCell>
        <mxCell id="67OT6ql0mRP8qZp6wruK-27" value="Awaiting Area Manager Approval" style="rounded=0;whiteSpace=wrap;html=1;" parent="1" vertex="1">
          <mxGeometry x="677" y="120" width="120" height="40" as="geometry" />
        </mxCell>
        <mxCell id="67OT6ql0mRP8qZp6wruK-40" style="edgeStyle=orthogonalEdgeStyle;rounded=0;orthogonalLoop=1;jettySize=auto;html=1;exitX=1;exitY=0.5;exitDx=0;exitDy=0;entryX=0.25;entryY=0;entryDx=0;entryDy=0;" parent="1" source="0Vi8RChmk7Yy_pR4jddX-8" target="67OT6ql0mRP8qZp6wruK-30" edge="1">
          <mxGeometry relative="1" as="geometry" />
        </mxCell>
        <mxCell id="67OT6ql0mRP8qZp6wruK-41" value="Decline&lt;br style=&quot;border-color: var(--border-color);&quot;&gt;Actions: Add a comment" style="edgeLabel;html=1;align=center;verticalAlign=middle;resizable=0;points=[];" parent="67OT6ql0mRP8qZp6wruK-40" vertex="1" connectable="0">
          <mxGeometry x="0.3905" y="1" relative="1" as="geometry">
            <mxPoint x="-91" y="-5" as="offset" />
          </mxGeometry>
        </mxCell>
        <mxCell id="67OT6ql0mRP8qZp6wruK-42" style="edgeStyle=orthogonalEdgeStyle;rounded=0;orthogonalLoop=1;jettySize=auto;html=1;exitX=0.5;exitY=1;exitDx=0;exitDy=0;entryX=0.5;entryY=0;entryDx=0;entryDy=0;" parent="1" source="67OT6ql0mRP8qZp6wruK-28" target="0Vi8RChmk7Yy_pR4jddX-8" edge="1">
          <mxGeometry relative="1" as="geometry" />
        </mxCell>
        <mxCell id="0Vi8RChmk7Yy_pR4jddX-10" value="Begin Head Office Approval" style="edgeLabel;html=1;align=center;verticalAlign=middle;resizable=0;points=[];" parent="67OT6ql0mRP8qZp6wruK-42" vertex="1" connectable="0">
          <mxGeometry x="-0.1111" y="-1" relative="1" as="geometry">
            <mxPoint as="offset" />
          </mxGeometry>
        </mxCell>
        <mxCell id="67OT6ql0mRP8qZp6wruK-28" value="Awaiting Head Office Approval" style="rounded=0;whiteSpace=wrap;html=1;" parent="1" vertex="1">
          <mxGeometry x="679" y="307" width="120" height="40" as="geometry" />
        </mxCell>
        <mxCell id="67OT6ql0mRP8qZp6wruK-29" value="Approved" style="rounded=0;whiteSpace=wrap;html=1;" parent="1" vertex="1">
          <mxGeometry x="679" y="506" width="120" height="40" as="geometry" />
        </mxCell>
        <mxCell id="67OT6ql0mRP8qZp6wruK-30" value="Declined" style="rounded=0;whiteSpace=wrap;html=1;" parent="1" vertex="1">
          <mxGeometry x="955" y="506" width="120" height="40" as="geometry" />
        </mxCell>
        <mxCell id="67OT6ql0mRP8qZp6wruK-44" value="Campaign Application" style="text;html=1;strokeColor=none;fillColor=none;align=center;verticalAlign=middle;rounded=0;fontSize=19;" parent="1" vertex="1">
          <mxGeometry x="1430" y="-20" width="60" height="30" as="geometry" />
        </mxCell>
        <mxCell id="67OT6ql0mRP8qZp6wruK-45" style="edgeStyle=orthogonalEdgeStyle;rounded=0;orthogonalLoop=1;jettySize=auto;html=1;exitX=0.5;exitY=1;exitDx=0;exitDy=0;entryX=0.5;entryY=0;entryDx=0;entryDy=0;" parent="1" source="67OT6ql0mRP8qZp6wruK-47" target="67OT6ql0mRP8qZp6wruK-51" edge="1">
          <mxGeometry relative="1" as="geometry" />
        </mxCell>
        <mxCell id="67OT6ql0mRP8qZp6wruK-46" value="Submit for Approval&lt;br&gt;Action: Escalate to role: client-services" style="edgeLabel;html=1;align=center;verticalAlign=middle;resizable=0;points=[];" parent="67OT6ql0mRP8qZp6wruK-45" vertex="1" connectable="0">
          <mxGeometry x="-0.36" y="-1" relative="1" as="geometry">
            <mxPoint x="1" y="14" as="offset" />
          </mxGeometry>
        </mxCell>
        <mxCell id="67OT6ql0mRP8qZp6wruK-47" value="start" style="ellipse;whiteSpace=wrap;html=1;" parent="1" vertex="1">
          <mxGeometry x="1315" y="30" width="50" height="50" as="geometry" />
        </mxCell>
        <mxCell id="67OT6ql0mRP8qZp6wruK-48" value="Approve&lt;br&gt;Action: Escalate to role: area-manager" style="edgeStyle=orthogonalEdgeStyle;rounded=0;orthogonalLoop=1;jettySize=auto;html=1;exitX=0.5;exitY=1;exitDx=0;exitDy=0;" parent="1" source="67OT6ql0mRP8qZp6wruK-51" target="67OT6ql0mRP8qZp6wruK-56" edge="1">
          <mxGeometry relative="1" as="geometry" />
        </mxCell>
        <mxCell id="67OT6ql0mRP8qZp6wruK-49" style="edgeStyle=orthogonalEdgeStyle;rounded=0;orthogonalLoop=1;jettySize=auto;html=1;exitX=1;exitY=0.5;exitDx=0;exitDy=0;entryX=0.75;entryY=0;entryDx=0;entryDy=0;" parent="1" source="67OT6ql0mRP8qZp6wruK-51" target="67OT6ql0mRP8qZp6wruK-63" edge="1">
          <mxGeometry relative="1" as="geometry" />
        </mxCell>
        <mxCell id="67OT6ql0mRP8qZp6wruK-50" value="Decline&lt;br&gt;Actions: 1) Add a comment&lt;br&gt;2) Return to creator" style="edgeLabel;html=1;align=center;verticalAlign=middle;resizable=0;points=[];" parent="67OT6ql0mRP8qZp6wruK-49" vertex="1" connectable="0">
          <mxGeometry x="-0.2208" y="2" relative="1" as="geometry">
            <mxPoint x="-130" y="2" as="offset" />
          </mxGeometry>
        </mxCell>
        <mxCell id="67OT6ql0mRP8qZp6wruK-51" value="Awaiting Agency Approval" style="rounded=0;whiteSpace=wrap;html=1;" parent="1" vertex="1">
          <mxGeometry x="1280" y="160" width="120" height="40" as="geometry" />
        </mxCell>
        <mxCell id="67OT6ql0mRP8qZp6wruK-52" style="edgeStyle=orthogonalEdgeStyle;rounded=0;orthogonalLoop=1;jettySize=auto;html=1;exitX=0.5;exitY=1;exitDx=0;exitDy=0;" parent="1" source="67OT6ql0mRP8qZp6wruK-56" target="67OT6ql0mRP8qZp6wruK-61" edge="1">
          <mxGeometry relative="1" as="geometry" />
        </mxCell>
        <mxCell id="67OT6ql0mRP8qZp6wruK-53" value="Approve&lt;br style=&quot;border-color: var(--border-color);&quot;&gt;Action: Escalate to role: head-office" style="edgeLabel;html=1;align=center;verticalAlign=middle;resizable=0;points=[];" parent="67OT6ql0mRP8qZp6wruK-52" vertex="1" connectable="0">
          <mxGeometry x="-0.175" y="1" relative="1" as="geometry">
            <mxPoint as="offset" />
          </mxGeometry>
        </mxCell>
        <mxCell id="67OT6ql0mRP8qZp6wruK-54" style="edgeStyle=orthogonalEdgeStyle;rounded=0;orthogonalLoop=1;jettySize=auto;html=1;exitX=1;exitY=0.5;exitDx=0;exitDy=0;entryX=0.5;entryY=0;entryDx=0;entryDy=0;" parent="1" source="67OT6ql0mRP8qZp6wruK-56" target="67OT6ql0mRP8qZp6wruK-63" edge="1">
          <mxGeometry relative="1" as="geometry" />
        </mxCell>
        <mxCell id="67OT6ql0mRP8qZp6wruK-55" value="Decline&lt;br style=&quot;border-color: var(--border-color);&quot;&gt;Actions: 1) Add a comment&lt;br style=&quot;border-color: var(--border-color);&quot;&gt;2) Return to creator" style="edgeLabel;html=1;align=center;verticalAlign=middle;resizable=0;points=[];" parent="67OT6ql0mRP8qZp6wruK-54" vertex="1" connectable="0">
          <mxGeometry x="-0.0056" y="1" relative="1" as="geometry">
            <mxPoint x="-119" y="1" as="offset" />
          </mxGeometry>
        </mxCell>
        <mxCell id="67OT6ql0mRP8qZp6wruK-56" value="Awaiting Area Manager Approval" style="rounded=0;whiteSpace=wrap;html=1;" parent="1" vertex="1">
          <mxGeometry x="1280" y="280" width="120" height="40" as="geometry" />
        </mxCell>
        <mxCell id="67OT6ql0mRP8qZp6wruK-57" style="edgeStyle=orthogonalEdgeStyle;rounded=0;orthogonalLoop=1;jettySize=auto;html=1;exitX=1;exitY=0.5;exitDx=0;exitDy=0;entryX=0.25;entryY=0;entryDx=0;entryDy=0;" parent="1" source="67OT6ql0mRP8qZp6wruK-61" target="67OT6ql0mRP8qZp6wruK-63" edge="1">
          <mxGeometry relative="1" as="geometry" />
        </mxCell>
        <mxCell id="67OT6ql0mRP8qZp6wruK-58" value="Decline&lt;br style=&quot;border-color: var(--border-color);&quot;&gt;Actions: 1) Add a comment&lt;br style=&quot;border-color: var(--border-color);&quot;&gt;2) Return to creator" style="edgeLabel;html=1;align=center;verticalAlign=middle;resizable=0;points=[];" parent="67OT6ql0mRP8qZp6wruK-57" vertex="1" connectable="0">
          <mxGeometry x="0.3905" y="1" relative="1" as="geometry">
            <mxPoint x="-91" y="-12" as="offset" />
          </mxGeometry>
        </mxCell>
        <mxCell id="67OT6ql0mRP8qZp6wruK-59" style="edgeStyle=orthogonalEdgeStyle;rounded=0;orthogonalLoop=1;jettySize=auto;html=1;exitX=0.5;exitY=1;exitDx=0;exitDy=0;entryX=0.5;entryY=0;entryDx=0;entryDy=0;" parent="1" source="67OT6ql0mRP8qZp6wruK-61" target="67OT6ql0mRP8qZp6wruK-62" edge="1">
          <mxGeometry relative="1" as="geometry" />
        </mxCell>
        <mxCell id="67OT6ql0mRP8qZp6wruK-60" value="Approve&lt;br style=&quot;border-color: var(--border-color);&quot;&gt;Action: Send notification to creator" style="edgeLabel;html=1;align=center;verticalAlign=middle;resizable=0;points=[];" parent="67OT6ql0mRP8qZp6wruK-59" vertex="1" connectable="0">
          <mxGeometry x="-0.1" y="2" relative="1" as="geometry">
            <mxPoint as="offset" />
          </mxGeometry>
        </mxCell>
        <mxCell id="67OT6ql0mRP8qZp6wruK-61" value="Awaiting Head Office Approval" style="rounded=0;whiteSpace=wrap;html=1;" parent="1" vertex="1">
          <mxGeometry x="1280" y="400" width="120" height="40" as="geometry" />
        </mxCell>
        <mxCell id="67OT6ql0mRP8qZp6wruK-62" value="Approved" style="rounded=0;whiteSpace=wrap;html=1;" parent="1" vertex="1">
          <mxGeometry x="1280" y="520" width="120" height="40" as="geometry" />
        </mxCell>
        <mxCell id="67OT6ql0mRP8qZp6wruK-63" value="Declined" style="rounded=0;whiteSpace=wrap;html=1;" parent="1" vertex="1">
          <mxGeometry x="1560" y="520" width="120" height="40" as="geometry" />
        </mxCell>
        <mxCell id="67OT6ql0mRP8qZp6wruK-64" value="Marketing Plan Approval" style="text;html=1;strokeColor=none;fillColor=none;align=center;verticalAlign=middle;rounded=0;fontSize=19;" parent="1" vertex="1">
          <mxGeometry x="2020" y="-20" width="60" height="30" as="geometry" />
        </mxCell>
        <mxCell id="67OT6ql0mRP8qZp6wruK-67" value="start" style="ellipse;whiteSpace=wrap;html=1;" parent="1" vertex="1">
          <mxGeometry x="1915" y="30" width="50" height="50" as="geometry" />
        </mxCell>
        <mxCell id="67OT6ql0mRP8qZp6wruK-68" value="Submit to Area Manager&lt;br&gt;Action: Escalate to role: area-manager" style="edgeStyle=orthogonalEdgeStyle;rounded=0;orthogonalLoop=1;jettySize=auto;html=1;exitX=0.5;exitY=1;exitDx=0;exitDy=0;" parent="1" source="67OT6ql0mRP8qZp6wruK-67" target="67OT6ql0mRP8qZp6wruK-76" edge="1">
          <mxGeometry relative="1" as="geometry">
            <mxPoint x="1940" y="200" as="sourcePoint" />
          </mxGeometry>
        </mxCell>
        <mxCell id="67OT6ql0mRP8qZp6wruK-72" style="edgeStyle=orthogonalEdgeStyle;rounded=0;orthogonalLoop=1;jettySize=auto;html=1;exitX=0.5;exitY=1;exitDx=0;exitDy=0;" parent="1" source="67OT6ql0mRP8qZp6wruK-76" target="67OT6ql0mRP8qZp6wruK-81" edge="1">
          <mxGeometry relative="1" as="geometry" />
        </mxCell>
        <mxCell id="67OT6ql0mRP8qZp6wruK-73" value="Approve&lt;br style=&quot;border-color: var(--border-color);&quot;&gt;Actions: Escalate to role: head-office" style="edgeLabel;html=1;align=center;verticalAlign=middle;resizable=0;points=[];" parent="67OT6ql0mRP8qZp6wruK-72" vertex="1" connectable="0">
          <mxGeometry x="-0.175" y="1" relative="1" as="geometry">
            <mxPoint as="offset" />
          </mxGeometry>
        </mxCell>
        <mxCell id="67OT6ql0mRP8qZp6wruK-74" style="edgeStyle=orthogonalEdgeStyle;rounded=0;orthogonalLoop=1;jettySize=auto;html=1;exitX=1;exitY=0.5;exitDx=0;exitDy=0;entryX=0.5;entryY=0;entryDx=0;entryDy=0;" parent="1" source="67OT6ql0mRP8qZp6wruK-76" target="67OT6ql0mRP8qZp6wruK-83" edge="1">
          <mxGeometry relative="1" as="geometry" />
        </mxCell>
        <mxCell id="67OT6ql0mRP8qZp6wruK-75" value="Decline&lt;br style=&quot;border-color: var(--border-color);&quot;&gt;Actions: 1) Add a comment&lt;br style=&quot;border-color: var(--border-color);&quot;&gt;2) Return to creator" style="edgeLabel;html=1;align=center;verticalAlign=middle;resizable=0;points=[];" parent="67OT6ql0mRP8qZp6wruK-74" vertex="1" connectable="0">
          <mxGeometry x="-0.0056" y="1" relative="1" as="geometry">
            <mxPoint x="-119" y="1" as="offset" />
          </mxGeometry>
        </mxCell>
        <mxCell id="67OT6ql0mRP8qZp6wruK-76" value="Awaiting Area Manager Approval" style="rounded=0;whiteSpace=wrap;html=1;" parent="1" vertex="1">
          <mxGeometry x="1880" y="160" width="120" height="40" as="geometry" />
        </mxCell>
        <mxCell id="67OT6ql0mRP8qZp6wruK-77" style="edgeStyle=orthogonalEdgeStyle;rounded=0;orthogonalLoop=1;jettySize=auto;html=1;exitX=1;exitY=0.5;exitDx=0;exitDy=0;entryX=0.25;entryY=0;entryDx=0;entryDy=0;" parent="1" source="67OT6ql0mRP8qZp6wruK-81" target="67OT6ql0mRP8qZp6wruK-83" edge="1">
          <mxGeometry relative="1" as="geometry" />
        </mxCell>
        <mxCell id="67OT6ql0mRP8qZp6wruK-78" value="Decline&lt;br style=&quot;border-color: var(--border-color);&quot;&gt;Actions: 1) Add a comment&lt;br style=&quot;border-color: var(--border-color);&quot;&gt;2) Return to creator" style="edgeLabel;html=1;align=center;verticalAlign=middle;resizable=0;points=[];" parent="67OT6ql0mRP8qZp6wruK-77" vertex="1" connectable="0">
          <mxGeometry x="0.3905" y="1" relative="1" as="geometry">
            <mxPoint x="-91" y="-12" as="offset" />
          </mxGeometry>
        </mxCell>
        <mxCell id="67OT6ql0mRP8qZp6wruK-79" style="edgeStyle=orthogonalEdgeStyle;rounded=0;orthogonalLoop=1;jettySize=auto;html=1;exitX=0.5;exitY=1;exitDx=0;exitDy=0;entryX=0.5;entryY=0;entryDx=0;entryDy=0;" parent="1" source="67OT6ql0mRP8qZp6wruK-81" target="67OT6ql0mRP8qZp6wruK-82" edge="1">
          <mxGeometry relative="1" as="geometry" />
        </mxCell>
        <mxCell id="67OT6ql0mRP8qZp6wruK-80" value="Approve&lt;br style=&quot;border-color: var(--border-color);&quot;&gt;Actions: 1) Approve plan&lt;br&gt;2) Send notification to creator" style="edgeLabel;html=1;align=center;verticalAlign=middle;resizable=0;points=[];" parent="67OT6ql0mRP8qZp6wruK-79" vertex="1" connectable="0">
          <mxGeometry x="-0.1" y="2" relative="1" as="geometry">
            <mxPoint as="offset" />
          </mxGeometry>
        </mxCell>
        <mxCell id="67OT6ql0mRP8qZp6wruK-81" value="Awaiting Head Office Approval" style="rounded=0;whiteSpace=wrap;html=1;" parent="1" vertex="1">
          <mxGeometry x="1880" y="280" width="120" height="40" as="geometry" />
        </mxCell>
        <mxCell id="67OT6ql0mRP8qZp6wruK-82" value="Approved" style="rounded=0;whiteSpace=wrap;html=1;" parent="1" vertex="1">
          <mxGeometry x="1880" y="400" width="120" height="40" as="geometry" />
        </mxCell>
        <mxCell id="67OT6ql0mRP8qZp6wruK-83" value="Declined" style="rounded=0;whiteSpace=wrap;html=1;" parent="1" vertex="1">
          <mxGeometry x="2160" y="400" width="120" height="40" as="geometry" />
        </mxCell>
        <mxCell id="67OT6ql0mRP8qZp6wruK-102" value="Marketing Plan Funding Approval" style="text;html=1;strokeColor=none;fillColor=none;align=center;verticalAlign=middle;rounded=0;fontSize=19;" parent="1" vertex="1">
          <mxGeometry x="2590" y="-20" width="60" height="30" as="geometry" />
        </mxCell>
        <mxCell id="67OT6ql0mRP8qZp6wruK-103" style="edgeStyle=orthogonalEdgeStyle;rounded=0;orthogonalLoop=1;jettySize=auto;html=1;exitX=0.5;exitY=1;exitDx=0;exitDy=0;entryX=0.5;entryY=0;entryDx=0;entryDy=0;" parent="1" source="67OT6ql0mRP8qZp6wruK-105" target="67OT6ql0mRP8qZp6wruK-109" edge="1">
          <mxGeometry relative="1" as="geometry" />
        </mxCell>
        <mxCell id="67OT6ql0mRP8qZp6wruK-104" value="Submit for Approval&lt;br&gt;Action: Escalate to role: client-services" style="edgeLabel;html=1;align=center;verticalAlign=middle;resizable=0;points=[];" parent="67OT6ql0mRP8qZp6wruK-103" vertex="1" connectable="0">
          <mxGeometry x="-0.36" y="-1" relative="1" as="geometry">
            <mxPoint x="1" y="21" as="offset" />
          </mxGeometry>
        </mxCell>
        <mxCell id="67OT6ql0mRP8qZp6wruK-105" value="start" style="ellipse;whiteSpace=wrap;html=1;" parent="1" vertex="1">
          <mxGeometry x="2475" y="30" width="50" height="50" as="geometry" />
        </mxCell>
        <mxCell id="67OT6ql0mRP8qZp6wruK-106" value="Approve&lt;br&gt;Action: Escalate to role: area-manager" style="edgeStyle=orthogonalEdgeStyle;rounded=0;orthogonalLoop=1;jettySize=auto;html=1;exitX=0.5;exitY=1;exitDx=0;exitDy=0;" parent="1" source="67OT6ql0mRP8qZp6wruK-109" target="67OT6ql0mRP8qZp6wruK-114" edge="1">
          <mxGeometry relative="1" as="geometry" />
        </mxCell>
        <mxCell id="67OT6ql0mRP8qZp6wruK-107" style="edgeStyle=orthogonalEdgeStyle;rounded=0;orthogonalLoop=1;jettySize=auto;html=1;exitX=1;exitY=0.5;exitDx=0;exitDy=0;entryX=0.75;entryY=0;entryDx=0;entryDy=0;" parent="1" source="67OT6ql0mRP8qZp6wruK-109" target="67OT6ql0mRP8qZp6wruK-121" edge="1">
          <mxGeometry relative="1" as="geometry" />
        </mxCell>
        <mxCell id="67OT6ql0mRP8qZp6wruK-108" value="Decline&lt;br&gt;Actions: 1) Add a comment&lt;br&gt;2) Return to creator" style="edgeLabel;html=1;align=center;verticalAlign=middle;resizable=0;points=[];" parent="67OT6ql0mRP8qZp6wruK-107" vertex="1" connectable="0">
          <mxGeometry x="-0.2208" y="2" relative="1" as="geometry">
            <mxPoint x="-130" y="2" as="offset" />
          </mxGeometry>
        </mxCell>
        <mxCell id="67OT6ql0mRP8qZp6wruK-109" value="Awaiting Agency Approval" style="rounded=0;whiteSpace=wrap;html=1;" parent="1" vertex="1">
          <mxGeometry x="2440" y="160" width="120" height="40" as="geometry" />
        </mxCell>
        <mxCell id="67OT6ql0mRP8qZp6wruK-110" style="edgeStyle=orthogonalEdgeStyle;rounded=0;orthogonalLoop=1;jettySize=auto;html=1;exitX=0.5;exitY=1;exitDx=0;exitDy=0;" parent="1" source="67OT6ql0mRP8qZp6wruK-114" target="67OT6ql0mRP8qZp6wruK-119" edge="1">
          <mxGeometry relative="1" as="geometry" />
        </mxCell>
        <mxCell id="67OT6ql0mRP8qZp6wruK-111" value="Approve&lt;br style=&quot;border-color: var(--border-color);&quot;&gt;Action: Escalate to role: head-office" style="edgeLabel;html=1;align=center;verticalAlign=middle;resizable=0;points=[];" parent="67OT6ql0mRP8qZp6wruK-110" vertex="1" connectable="0">
          <mxGeometry x="-0.175" y="1" relative="1" as="geometry">
            <mxPoint as="offset" />
          </mxGeometry>
        </mxCell>
        <mxCell id="67OT6ql0mRP8qZp6wruK-112" style="edgeStyle=orthogonalEdgeStyle;rounded=0;orthogonalLoop=1;jettySize=auto;html=1;exitX=1;exitY=0.5;exitDx=0;exitDy=0;entryX=0.5;entryY=0;entryDx=0;entryDy=0;" parent="1" source="67OT6ql0mRP8qZp6wruK-114" target="67OT6ql0mRP8qZp6wruK-121" edge="1">
          <mxGeometry relative="1" as="geometry" />
        </mxCell>
        <mxCell id="67OT6ql0mRP8qZp6wruK-113" value="Decline&lt;br style=&quot;border-color: var(--border-color);&quot;&gt;Actions: 1) Add a comment&lt;br style=&quot;border-color: var(--border-color);&quot;&gt;2) Return to creator" style="edgeLabel;html=1;align=center;verticalAlign=middle;resizable=0;points=[];" parent="67OT6ql0mRP8qZp6wruK-112" vertex="1" connectable="0">
          <mxGeometry x="-0.0056" y="1" relative="1" as="geometry">
            <mxPoint x="-119" y="1" as="offset" />
          </mxGeometry>
        </mxCell>
        <mxCell id="67OT6ql0mRP8qZp6wruK-114" value="Awaiting Area Manager Approval" style="rounded=0;whiteSpace=wrap;html=1;" parent="1" vertex="1">
          <mxGeometry x="2440" y="280" width="120" height="40" as="geometry" />
        </mxCell>
        <mxCell id="67OT6ql0mRP8qZp6wruK-115" style="edgeStyle=orthogonalEdgeStyle;rounded=0;orthogonalLoop=1;jettySize=auto;html=1;exitX=1;exitY=0.5;exitDx=0;exitDy=0;entryX=0.25;entryY=0;entryDx=0;entryDy=0;" parent="1" source="67OT6ql0mRP8qZp6wruK-119" target="67OT6ql0mRP8qZp6wruK-121" edge="1">
          <mxGeometry relative="1" as="geometry" />
        </mxCell>
        <mxCell id="67OT6ql0mRP8qZp6wruK-116" value="Decline&lt;br style=&quot;border-color: var(--border-color);&quot;&gt;Actions: 1) Add a comment&lt;br style=&quot;border-color: var(--border-color);&quot;&gt;2) Return to creator" style="edgeLabel;html=1;align=center;verticalAlign=middle;resizable=0;points=[];" parent="67OT6ql0mRP8qZp6wruK-115" vertex="1" connectable="0">
          <mxGeometry x="0.3905" y="1" relative="1" as="geometry">
            <mxPoint x="-91" y="-12" as="offset" />
          </mxGeometry>
        </mxCell>
        <mxCell id="67OT6ql0mRP8qZp6wruK-117" style="edgeStyle=orthogonalEdgeStyle;rounded=0;orthogonalLoop=1;jettySize=auto;html=1;exitX=0.5;exitY=1;exitDx=0;exitDy=0;entryX=0.5;entryY=0;entryDx=0;entryDy=0;" parent="1" source="67OT6ql0mRP8qZp6wruK-119" target="67OT6ql0mRP8qZp6wruK-120" edge="1">
          <mxGeometry relative="1" as="geometry" />
        </mxCell>
        <mxCell id="67OT6ql0mRP8qZp6wruK-118" value="Approve&lt;br style=&quot;border-color: var(--border-color);&quot;&gt;Action: Send notification to creator" style="edgeLabel;html=1;align=center;verticalAlign=middle;resizable=0;points=[];" parent="67OT6ql0mRP8qZp6wruK-117" vertex="1" connectable="0">
          <mxGeometry x="-0.1" y="2" relative="1" as="geometry">
            <mxPoint as="offset" />
          </mxGeometry>
        </mxCell>
        <mxCell id="67OT6ql0mRP8qZp6wruK-119" value="Awaiting Head Office Approval" style="rounded=0;whiteSpace=wrap;html=1;" parent="1" vertex="1">
          <mxGeometry x="2440" y="400" width="120" height="40" as="geometry" />
        </mxCell>
        <mxCell id="67OT6ql0mRP8qZp6wruK-120" value="Approved" style="rounded=0;whiteSpace=wrap;html=1;" parent="1" vertex="1">
          <mxGeometry x="2440" y="520" width="120" height="40" as="geometry" />
        </mxCell>
        <mxCell id="67OT6ql0mRP8qZp6wruK-121" value="Declined" style="rounded=0;whiteSpace=wrap;html=1;" parent="1" vertex="1">
          <mxGeometry x="2720" y="520" width="120" height="40" as="geometry" />
        </mxCell>
        <mxCell id="67OT6ql0mRP8qZp6wruK-122" value="Marketing Plan Payment Approval" style="text;html=1;strokeColor=none;fillColor=none;align=center;verticalAlign=middle;rounded=0;fontSize=19;" parent="1" vertex="1">
          <mxGeometry x="3140" y="-20" width="60" height="30" as="geometry" />
        </mxCell>
        <mxCell id="67OT6ql0mRP8qZp6wruK-123" style="edgeStyle=orthogonalEdgeStyle;rounded=0;orthogonalLoop=1;jettySize=auto;html=1;exitX=0.5;exitY=1;exitDx=0;exitDy=0;entryX=0.5;entryY=0;entryDx=0;entryDy=0;" parent="1" source="67OT6ql0mRP8qZp6wruK-125" target="67OT6ql0mRP8qZp6wruK-129" edge="1">
          <mxGeometry relative="1" as="geometry" />
        </mxCell>
        <mxCell id="67OT6ql0mRP8qZp6wruK-125" value="start" style="ellipse;whiteSpace=wrap;html=1;" parent="1" vertex="1">
          <mxGeometry x="3035" y="30" width="50" height="50" as="geometry" />
        </mxCell>
        <mxCell id="67OT6ql0mRP8qZp6wruK-126" value="Approve Payment&lt;br&gt;Action: Approve payment" style="edgeStyle=orthogonalEdgeStyle;rounded=0;orthogonalLoop=1;jettySize=auto;html=1;exitX=0.5;exitY=1;exitDx=0;exitDy=0;" parent="1" source="67OT6ql0mRP8qZp6wruK-129" target="67OT6ql0mRP8qZp6wruK-134" edge="1">
          <mxGeometry relative="1" as="geometry" />
        </mxCell>
        <mxCell id="67OT6ql0mRP8qZp6wruK-127" style="edgeStyle=orthogonalEdgeStyle;rounded=0;orthogonalLoop=1;jettySize=auto;html=1;exitX=1;exitY=0.5;exitDx=0;exitDy=0;entryX=0.5;entryY=0;entryDx=0;entryDy=0;" parent="1" source="67OT6ql0mRP8qZp6wruK-129" target="67OT6ql0mRP8qZp6wruK-141" edge="1">
          <mxGeometry relative="1" as="geometry" />
        </mxCell>
        <mxCell id="67OT6ql0mRP8qZp6wruK-128" value="Reject Payment&lt;br&gt;Action: Add a comment" style="edgeLabel;html=1;align=center;verticalAlign=middle;resizable=0;points=[];" parent="67OT6ql0mRP8qZp6wruK-127" vertex="1" connectable="0">
          <mxGeometry x="-0.2208" y="2" relative="1" as="geometry">
            <mxPoint x="-23" y="2" as="offset" />
          </mxGeometry>
        </mxCell>
        <mxCell id="67OT6ql0mRP8qZp6wruK-129" value="Awaiting Payment Approval" style="rounded=0;whiteSpace=wrap;html=1;" parent="1" vertex="1">
          <mxGeometry x="3000" y="120" width="120" height="40" as="geometry" />
        </mxCell>
        <mxCell id="67OT6ql0mRP8qZp6wruK-134" value="Payment Approved" style="rounded=0;whiteSpace=wrap;html=1;" parent="1" vertex="1">
          <mxGeometry x="3000" y="240" width="120" height="40" as="geometry" />
        </mxCell>
        <mxCell id="67OT6ql0mRP8qZp6wruK-141" value="Payment Declined" style="rounded=0;whiteSpace=wrap;html=1;" parent="1" vertex="1">
          <mxGeometry x="3250" y="240" width="120" height="40" as="geometry" />
        </mxCell>
        <mxCell id="67OT6ql0mRP8qZp6wruK-142" value="Faq Approval" style="text;html=1;strokeColor=none;fillColor=none;align=center;verticalAlign=middle;rounded=0;fontSize=19;" parent="1" vertex="1">
          <mxGeometry x="240" y="650" width="60" height="30" as="geometry" />
        </mxCell>
        <mxCell id="67OT6ql0mRP8qZp6wruK-143" style="edgeStyle=orthogonalEdgeStyle;rounded=0;orthogonalLoop=1;jettySize=auto;html=1;exitX=0.5;exitY=1;exitDx=0;exitDy=0;entryX=0.5;entryY=0;entryDx=0;entryDy=0;" parent="1" source="67OT6ql0mRP8qZp6wruK-144" target="67OT6ql0mRP8qZp6wruK-148" edge="1">
          <mxGeometry relative="1" as="geometry" />
        </mxCell>
        <mxCell id="67OT6ql0mRP8qZp6wruK-144" value="start" style="ellipse;whiteSpace=wrap;html=1;" parent="1" vertex="1">
          <mxGeometry x="237" y="710" width="50" height="50" as="geometry" />
        </mxCell>
        <mxCell id="67OT6ql0mRP8qZp6wruK-145" value="Question Answered&lt;br&gt;Action: Notify creator of answer" style="edgeStyle=orthogonalEdgeStyle;rounded=0;orthogonalLoop=1;jettySize=auto;html=1;exitX=0.5;exitY=1;exitDx=0;exitDy=0;" parent="1" source="67OT6ql0mRP8qZp6wruK-148" target="67OT6ql0mRP8qZp6wruK-149" edge="1">
          <mxGeometry relative="1" as="geometry">
            <mxPoint as="offset" />
          </mxGeometry>
        </mxCell>
        <mxCell id="67OT6ql0mRP8qZp6wruK-146" style="edgeStyle=orthogonalEdgeStyle;rounded=0;orthogonalLoop=1;jettySize=auto;html=1;exitX=1;exitY=0.5;exitDx=0;exitDy=0;entryX=0.5;entryY=0;entryDx=0;entryDy=0;" parent="1" source="67OT6ql0mRP8qZp6wruK-148" target="67OT6ql0mRP8qZp6wruK-150" edge="1">
          <mxGeometry relative="1" as="geometry" />
        </mxCell>
        <mxCell id="67OT6ql0mRP8qZp6wruK-147" value="Reject Question&lt;br&gt;Actions: 1) Suggest an existing Question&lt;br&gt;2) Notify creator of rejection" style="edgeLabel;html=1;align=center;verticalAlign=middle;resizable=0;points=[];" parent="67OT6ql0mRP8qZp6wruK-146" vertex="1" connectable="0">
          <mxGeometry x="-0.2208" y="2" relative="1" as="geometry">
            <mxPoint x="77" y="42" as="offset" />
          </mxGeometry>
        </mxCell>
        <mxCell id="67OT6ql0mRP8qZp6wruK-148" value="Question Submitted" style="rounded=0;whiteSpace=wrap;html=1;" parent="1" vertex="1">
          <mxGeometry x="202" y="800" width="120" height="40" as="geometry" />
        </mxCell>
        <mxCell id="67OT6ql0mRP8qZp6wruK-153" style="edgeStyle=orthogonalEdgeStyle;rounded=0;orthogonalLoop=1;jettySize=auto;html=1;exitX=0.5;exitY=1;exitDx=0;exitDy=0;entryX=0.5;entryY=0;entryDx=0;entryDy=0;" parent="1" source="67OT6ql0mRP8qZp6wruK-149" target="67OT6ql0mRP8qZp6wruK-152" edge="1">
          <mxGeometry relative="1" as="geometry" />
        </mxCell>
        <mxCell id="67OT6ql0mRP8qZp6wruK-154" value="Question Answered And Publish&lt;br&gt;Action: Notify creator of answer published" style="edgeLabel;html=1;align=center;verticalAlign=middle;resizable=0;points=[];" parent="67OT6ql0mRP8qZp6wruK-153" vertex="1" connectable="0">
          <mxGeometry x="0.075" y="1" relative="1" as="geometry">
            <mxPoint x="-1" y="-13" as="offset" />
          </mxGeometry>
        </mxCell>
        <mxCell id="67OT6ql0mRP8qZp6wruK-156" style="edgeStyle=orthogonalEdgeStyle;rounded=0;orthogonalLoop=1;jettySize=auto;html=1;exitX=0;exitY=0.5;exitDx=0;exitDy=0;entryX=0;entryY=0.5;entryDx=0;entryDy=0;" parent="1" source="67OT6ql0mRP8qZp6wruK-149" target="67OT6ql0mRP8qZp6wruK-152" edge="1">
          <mxGeometry relative="1" as="geometry">
            <Array as="points">
              <mxPoint x="92" y="940" />
              <mxPoint x="92" y="1060" />
            </Array>
          </mxGeometry>
        </mxCell>
        <mxCell id="67OT6ql0mRP8qZp6wruK-157" value="Publish Question" style="edgeLabel;html=1;align=center;verticalAlign=middle;resizable=0;points=[];" parent="67OT6ql0mRP8qZp6wruK-156" vertex="1" connectable="0">
          <mxGeometry x="-0.045" y="-2" relative="1" as="geometry">
            <mxPoint as="offset" />
          </mxGeometry>
        </mxCell>
        <mxCell id="67OT6ql0mRP8qZp6wruK-149" value="Question Answered" style="rounded=0;whiteSpace=wrap;html=1;" parent="1" vertex="1">
          <mxGeometry x="202" y="920" width="120" height="40" as="geometry" />
        </mxCell>
        <mxCell id="67OT6ql0mRP8qZp6wruK-150" value="Question Rejected" style="rounded=0;whiteSpace=wrap;html=1;" parent="1" vertex="1">
          <mxGeometry x="452" y="920" width="120" height="40" as="geometry" />
        </mxCell>
        <mxCell id="67OT6ql0mRP8qZp6wruK-152" value="Published" style="rounded=0;whiteSpace=wrap;html=1;" parent="1" vertex="1">
          <mxGeometry x="202" y="1040" width="120" height="40" as="geometry" />
        </mxCell>
        <mxCell id="67OT6ql0mRP8qZp6wruK-158" value="Asset Approval" style="text;html=1;strokeColor=none;fillColor=none;align=center;verticalAlign=middle;rounded=0;fontSize=19;" parent="1" vertex="1">
          <mxGeometry x="998" y="650" width="60" height="30" as="geometry" />
        </mxCell>
        <mxCell id="67OT6ql0mRP8qZp6wruK-159" style="edgeStyle=orthogonalEdgeStyle;rounded=0;orthogonalLoop=1;jettySize=auto;html=1;exitX=0.5;exitY=1;exitDx=0;exitDy=0;entryX=0.5;entryY=0;entryDx=0;entryDy=0;" parent="1" source="67OT6ql0mRP8qZp6wruK-160" target="67OT6ql0mRP8qZp6wruK-164" edge="1">
          <mxGeometry relative="1" as="geometry" />
        </mxCell>
        <mxCell id="67OT6ql0mRP8qZp6wruK-172" value="Initiate Asset Approval Request&lt;br&gt;Actions: 1) Assign to supplier&lt;br&gt;2) Set user asset status to pending approval&lt;br&gt;3) Notify supplier &quot;New Editable Asset Approval Request&quot;" style="edgeLabel;html=1;align=center;verticalAlign=middle;resizable=0;points=[];" parent="67OT6ql0mRP8qZp6wruK-159" vertex="1" connectable="0">
          <mxGeometry x="-0.525" y="-3" relative="1" as="geometry">
            <mxPoint x="3" y="21" as="offset" />
          </mxGeometry>
        </mxCell>
        <mxCell id="67OT6ql0mRP8qZp6wruK-160" value="start" style="ellipse;whiteSpace=wrap;html=1;" parent="1" vertex="1">
          <mxGeometry x="995" y="710" width="50" height="50" as="geometry" />
        </mxCell>
        <mxCell id="67OT6ql0mRP8qZp6wruK-161" value="Approve Asset&lt;br&gt;Actions: 1) Set user asset status to approved&lt;br&gt;2) Notify creator&lt;br&gt;3) Return to creator" style="edgeStyle=orthogonalEdgeStyle;rounded=0;orthogonalLoop=1;jettySize=auto;html=1;exitX=0;exitY=0.5;exitDx=0;exitDy=0;" parent="1" source="67OT6ql0mRP8qZp6wruK-164" target="67OT6ql0mRP8qZp6wruK-169" edge="1">
          <mxGeometry x="0.5668" relative="1" as="geometry">
            <mxPoint as="offset" />
          </mxGeometry>
        </mxCell>
        <mxCell id="67OT6ql0mRP8qZp6wruK-162" style="edgeStyle=orthogonalEdgeStyle;rounded=0;orthogonalLoop=1;jettySize=auto;html=1;exitX=1;exitY=0.5;exitDx=0;exitDy=0;entryX=0.5;entryY=0;entryDx=0;entryDy=0;" parent="1" source="67OT6ql0mRP8qZp6wruK-164" target="67OT6ql0mRP8qZp6wruK-170" edge="1">
          <mxGeometry relative="1" as="geometry" />
        </mxCell>
        <mxCell id="67OT6ql0mRP8qZp6wruK-163" value="Reject Asset&lt;br&gt;Actions: 1) Reject user asset (status to draft)&lt;br&gt;2) Notify creator of rejection&lt;br&gt;3) Return to creator" style="edgeLabel;html=1;align=center;verticalAlign=middle;resizable=0;points=[];" parent="67OT6ql0mRP8qZp6wruK-162" vertex="1" connectable="0">
          <mxGeometry x="-0.2208" y="2" relative="1" as="geometry">
            <mxPoint x="48" y="62" as="offset" />
          </mxGeometry>
        </mxCell>
        <mxCell id="67OT6ql0mRP8qZp6wruK-164" value="Awaiting Approval" style="rounded=0;whiteSpace=wrap;html=1;" parent="1" vertex="1">
          <mxGeometry x="957" y="880" width="120" height="40" as="geometry" />
        </mxCell>
        <mxCell id="67OT6ql0mRP8qZp6wruK-169" value="Approved" style="rounded=0;whiteSpace=wrap;html=1;" parent="1" vertex="1">
          <mxGeometry x="720" y="1000" width="120" height="40" as="geometry" />
        </mxCell>
        <mxCell id="67OT6ql0mRP8qZp6wruK-173" style="edgeStyle=orthogonalEdgeStyle;rounded=0;orthogonalLoop=1;jettySize=auto;html=1;exitX=0;exitY=0.5;exitDx=0;exitDy=0;entryX=0.5;entryY=1;entryDx=0;entryDy=0;" parent="1" source="67OT6ql0mRP8qZp6wruK-170" target="67OT6ql0mRP8qZp6wruK-164" edge="1">
          <mxGeometry relative="1" as="geometry">
            <mxPoint x="1196.5" y="1070" as="sourcePoint" />
            <mxPoint x="1003.5" y="890" as="targetPoint" />
          </mxGeometry>
        </mxCell>
        <mxCell id="67OT6ql0mRP8qZp6wruK-174" value="Resubmit Rejected Asset&lt;br style=&quot;border-color: var(--border-color);&quot;&gt;Actions: 1) Assign to supplier&lt;br style=&quot;border-color: var(--border-color);&quot;&gt;2) Set user asset status to pending approval&lt;br style=&quot;border-color: var(--border-color);&quot;&gt;3) Notify supplier &quot;Editable Asset Approval Request Resubmitted&quot;" style="edgeLabel;html=1;align=center;verticalAlign=middle;resizable=0;points=[];" parent="67OT6ql0mRP8qZp6wruK-173" vertex="1" connectable="0">
          <mxGeometry x="0.7931" y="-1" relative="1" as="geometry">
            <mxPoint x="10" y="51" as="offset" />
          </mxGeometry>
        </mxCell>
        <mxCell id="67OT6ql0mRP8qZp6wruK-170" value="Rejected" style="rounded=0;whiteSpace=wrap;html=1;" parent="1" vertex="1">
          <mxGeometry x="1210" y="1080" width="120" height="40" as="geometry" />
        </mxCell>
        <mxCell id="67OT6ql0mRP8qZp6wruK-176" value="New Asset Creation" style="text;html=1;strokeColor=none;fillColor=none;align=center;verticalAlign=middle;rounded=0;fontSize=19;" parent="1" vertex="1">
          <mxGeometry x="240" y="1250" width="60" height="30" as="geometry" />
        </mxCell>
        <mxCell id="67OT6ql0mRP8qZp6wruK-177" style="edgeStyle=orthogonalEdgeStyle;rounded=0;orthogonalLoop=1;jettySize=auto;html=1;exitX=0.5;exitY=1;exitDx=0;exitDy=0;entryX=0.5;entryY=0;entryDx=0;entryDy=0;" parent="1" source="67OT6ql0mRP8qZp6wruK-178" target="67OT6ql0mRP8qZp6wruK-190" edge="1">
          <mxGeometry relative="1" as="geometry" />
        </mxCell>
        <mxCell id="67OT6ql0mRP8qZp6wruK-201" value="Request Quotation&lt;br&gt;Actions: 1) Assign to supplier&lt;br&gt;2) Assign to team &quot;client-services&quot;" style="edgeLabel;html=1;align=center;verticalAlign=middle;resizable=0;points=[];" parent="67OT6ql0mRP8qZp6wruK-177" vertex="1" connectable="0">
          <mxGeometry x="-0.35" relative="1" as="geometry">
            <mxPoint y="14" as="offset" />
          </mxGeometry>
        </mxCell>
        <mxCell id="67OT6ql0mRP8qZp6wruK-178" value="start" style="ellipse;whiteSpace=wrap;html=1;" parent="1" vertex="1">
          <mxGeometry x="235" y="1310" width="50" height="50" as="geometry" />
        </mxCell>
        <mxCell id="67OT6ql0mRP8qZp6wruK-207" style="edgeStyle=orthogonalEdgeStyle;rounded=0;orthogonalLoop=1;jettySize=auto;html=1;exitX=0.5;exitY=1;exitDx=0;exitDy=0;entryX=0.5;entryY=0;entryDx=0;entryDy=0;" parent="1" source="67OT6ql0mRP8qZp6wruK-182" target="67OT6ql0mRP8qZp6wruK-194" edge="1">
          <mxGeometry relative="1" as="geometry" />
        </mxCell>
        <mxCell id="67OT6ql0mRP8qZp6wruK-208" value="Approve Quotation&lt;br&gt;Actions: 1) Approve quote&lt;br&gt;2) Assign to team &quot;client-services&quot;" style="edgeLabel;html=1;align=center;verticalAlign=middle;resizable=0;points=[];" parent="67OT6ql0mRP8qZp6wruK-207" vertex="1" connectable="0">
          <mxGeometry x="0.4769" relative="1" as="geometry">
            <mxPoint x="-4" y="-19" as="offset" />
          </mxGeometry>
        </mxCell>
        <mxCell id="67OT6ql0mRP8qZp6wruK-209" style="edgeStyle=orthogonalEdgeStyle;rounded=0;orthogonalLoop=1;jettySize=auto;html=1;exitX=1;exitY=0.75;exitDx=0;exitDy=0;entryX=0.5;entryY=1;entryDx=0;entryDy=0;" parent="1" source="67OT6ql0mRP8qZp6wruK-182" target="67OT6ql0mRP8qZp6wruK-191" edge="1">
          <mxGeometry relative="1" as="geometry">
            <mxPoint x="540" y="1620" as="targetPoint" />
            <Array as="points">
              <mxPoint x="360" y="1590" />
              <mxPoint x="360" y="1640" />
              <mxPoint x="540" y="1640" />
            </Array>
          </mxGeometry>
        </mxCell>
        <mxCell id="67OT6ql0mRP8qZp6wruK-210" value="More Information Required&lt;br&gt;Action: Return to creator" style="edgeLabel;html=1;align=center;verticalAlign=middle;resizable=0;points=[];" parent="67OT6ql0mRP8qZp6wruK-209" vertex="1" connectable="0">
          <mxGeometry x="-0.425" y="-3" relative="1" as="geometry">
            <mxPoint x="95" y="1" as="offset" />
          </mxGeometry>
        </mxCell>
        <mxCell id="67OT6ql0mRP8qZp6wruK-237" style="edgeStyle=orthogonalEdgeStyle;rounded=0;orthogonalLoop=1;jettySize=auto;html=1;exitX=0;exitY=0.5;exitDx=0;exitDy=0;entryX=0;entryY=0.5;entryDx=0;entryDy=0;" parent="1" source="67OT6ql0mRP8qZp6wruK-182" target="67OT6ql0mRP8qZp6wruK-190" edge="1">
          <mxGeometry relative="1" as="geometry">
            <Array as="points">
              <mxPoint x="80" y="1580" />
              <mxPoint x="80" y="1460" />
            </Array>
          </mxGeometry>
        </mxCell>
        <mxCell id="67OT6ql0mRP8qZp6wruK-238" value="Reject Quotation&lt;br style=&quot;border-color: var(--border-color); background-color: rgb(251, 251, 251);&quot;&gt;&lt;span style=&quot;border-color: var(--border-color);&quot;&gt;Action: Assign to team &quot;client-services&quot;&lt;/span&gt;" style="edgeLabel;html=1;align=center;verticalAlign=middle;resizable=0;points=[];" parent="67OT6ql0mRP8qZp6wruK-237" vertex="1" connectable="0">
          <mxGeometry x="-0.0056" y="2" relative="1" as="geometry">
            <mxPoint as="offset" />
          </mxGeometry>
        </mxCell>
        <mxCell id="67OT6ql0mRP8qZp6wruK-182" value="Awaiting Quote Approval" style="rounded=0;whiteSpace=wrap;html=1;" parent="1" vertex="1">
          <mxGeometry x="200" y="1560" width="120" height="40" as="geometry" />
        </mxCell>
        <mxCell id="67OT6ql0mRP8qZp6wruK-185" style="edgeStyle=orthogonalEdgeStyle;rounded=0;orthogonalLoop=1;jettySize=auto;html=1;exitX=0;exitY=0.5;exitDx=0;exitDy=0;entryX=0;entryY=0.5;entryDx=0;entryDy=0;" parent="1" edge="1">
          <mxGeometry relative="1" as="geometry">
            <Array as="points">
              <mxPoint x="92" y="1540" />
              <mxPoint x="92" y="1660" />
            </Array>
            <mxPoint x="202" y="1540" as="sourcePoint" />
          </mxGeometry>
        </mxCell>
        <mxCell id="67OT6ql0mRP8qZp6wruK-186" value="Publish Question" style="edgeLabel;html=1;align=center;verticalAlign=middle;resizable=0;points=[];" parent="67OT6ql0mRP8qZp6wruK-185" vertex="1" connectable="0">
          <mxGeometry x="-0.045" y="-2" relative="1" as="geometry">
            <mxPoint as="offset" />
          </mxGeometry>
        </mxCell>
        <mxCell id="67OT6ql0mRP8qZp6wruK-202" style="edgeStyle=orthogonalEdgeStyle;rounded=0;orthogonalLoop=1;jettySize=auto;html=1;exitX=0.5;exitY=1;exitDx=0;exitDy=0;entryX=0.5;entryY=0;entryDx=0;entryDy=0;" parent="1" source="67OT6ql0mRP8qZp6wruK-190" target="67OT6ql0mRP8qZp6wruK-182" edge="1">
          <mxGeometry relative="1" as="geometry" />
        </mxCell>
        <mxCell id="67OT6ql0mRP8qZp6wruK-203" value="Add a Quotation&lt;br&gt;Actions: 1) Add a quote form&lt;br&gt;2) Return to owner" style="edgeLabel;html=1;align=center;verticalAlign=middle;resizable=0;points=[];" parent="67OT6ql0mRP8qZp6wruK-202" vertex="1" connectable="0">
          <mxGeometry x="-0.3333" y="1" relative="1" as="geometry">
            <mxPoint x="-1" y="13" as="offset" />
          </mxGeometry>
        </mxCell>
        <mxCell id="67OT6ql0mRP8qZp6wruK-190" value="Awaiting Quote" style="rounded=0;whiteSpace=wrap;html=1;" parent="1" vertex="1">
          <mxGeometry x="198" y="1440" width="120" height="40" as="geometry" />
        </mxCell>
        <mxCell id="67OT6ql0mRP8qZp6wruK-211" style="edgeStyle=orthogonalEdgeStyle;rounded=0;orthogonalLoop=1;jettySize=auto;html=1;entryX=1;entryY=0.25;entryDx=0;entryDy=0;exitX=0.5;exitY=0;exitDx=0;exitDy=0;" parent="1" source="67OT6ql0mRP8qZp6wruK-191" target="67OT6ql0mRP8qZp6wruK-182" edge="1">
          <mxGeometry relative="1" as="geometry">
            <mxPoint x="540" y="1550" as="sourcePoint" />
            <Array as="points">
              <mxPoint x="540" y="1520" />
              <mxPoint x="360" y="1520" />
              <mxPoint x="360" y="1570" />
            </Array>
          </mxGeometry>
        </mxCell>
        <mxCell id="67OT6ql0mRP8qZp6wruK-212" value="More Information Provided&lt;br&gt;Action: Assign to team &lt;br&gt;&quot;client-services&quot;" style="edgeLabel;html=1;align=center;verticalAlign=middle;resizable=0;points=[];" parent="67OT6ql0mRP8qZp6wruK-211" vertex="1" connectable="0">
          <mxGeometry x="0.1136" y="2" relative="1" as="geometry">
            <mxPoint x="45" y="-3" as="offset" />
          </mxGeometry>
        </mxCell>
        <mxCell id="67OT6ql0mRP8qZp6wruK-191" value="More Information Required" style="rounded=0;whiteSpace=wrap;html=1;" parent="1" vertex="1">
          <mxGeometry x="480" y="1560" width="120" height="40" as="geometry" />
        </mxCell>
        <mxCell id="67OT6ql0mRP8qZp6wruK-215" style="edgeStyle=orthogonalEdgeStyle;rounded=0;orthogonalLoop=1;jettySize=auto;html=1;exitX=0;exitY=0.5;exitDx=0;exitDy=0;entryX=0;entryY=0.5;entryDx=0;entryDy=0;" parent="1" source="67OT6ql0mRP8qZp6wruK-192" target="67OT6ql0mRP8qZp6wruK-194" edge="1">
          <mxGeometry relative="1" as="geometry">
            <Array as="points">
              <mxPoint x="82" y="1820" />
              <mxPoint x="82" y="1700" />
            </Array>
          </mxGeometry>
        </mxCell>
        <mxCell id="67OT6ql0mRP8qZp6wruK-216" value="Return To Client Services&lt;br&gt;Action: Assign to team &quot;client-services&quot;" style="edgeLabel;html=1;align=center;verticalAlign=middle;resizable=0;points=[];" parent="67OT6ql0mRP8qZp6wruK-215" vertex="1" connectable="0">
          <mxGeometry x="0.1111" y="1" relative="1" as="geometry">
            <mxPoint x="1" y="20" as="offset" />
          </mxGeometry>
        </mxCell>
        <mxCell id="67OT6ql0mRP8qZp6wruK-217" style="edgeStyle=orthogonalEdgeStyle;rounded=0;orthogonalLoop=1;jettySize=auto;html=1;exitX=0.25;exitY=1;exitDx=0;exitDy=0;entryX=0.25;entryY=0;entryDx=0;entryDy=0;" parent="1" edge="1">
          <mxGeometry relative="1" as="geometry">
            <mxPoint x="229.5" y="1840" as="sourcePoint" />
            <mxPoint x="229.5" y="1920" as="targetPoint" />
            <Array as="points">
              <mxPoint x="230" y="1880" />
              <mxPoint x="230" y="1880" />
            </Array>
          </mxGeometry>
        </mxCell>
        <mxCell id="67OT6ql0mRP8qZp6wruK-218" value="Move To In Progress With &lt;br&gt;Specific Studio Worker&lt;br&gt;Action: Assign to user in role &quot;studio&quot;" style="edgeLabel;html=1;align=center;verticalAlign=middle;resizable=0;points=[];" parent="67OT6ql0mRP8qZp6wruK-217" vertex="1" connectable="0">
          <mxGeometry x="-0.2" y="1" relative="1" as="geometry">
            <mxPoint x="-53" y="2" as="offset" />
          </mxGeometry>
        </mxCell>
        <mxCell id="67OT6ql0mRP8qZp6wruK-219" style="edgeStyle=orthogonalEdgeStyle;rounded=0;orthogonalLoop=1;jettySize=auto;html=1;exitX=0.75;exitY=1;exitDx=0;exitDy=0;entryX=0.75;entryY=0;entryDx=0;entryDy=0;" parent="1" source="67OT6ql0mRP8qZp6wruK-192" target="67OT6ql0mRP8qZp6wruK-195" edge="1">
          <mxGeometry relative="1" as="geometry" />
        </mxCell>
        <mxCell id="67OT6ql0mRP8qZp6wruK-220" value="Move To In Progress With Me&lt;br&gt;Action: assign to active user" style="edgeLabel;html=1;align=center;verticalAlign=middle;resizable=0;points=[];" parent="67OT6ql0mRP8qZp6wruK-219" vertex="1" connectable="0">
          <mxGeometry x="-0.3" y="3" relative="1" as="geometry">
            <mxPoint x="57" y="6" as="offset" />
          </mxGeometry>
        </mxCell>
        <mxCell id="67OT6ql0mRP8qZp6wruK-192" value="Ready for Work, Awaiting Scheduling" style="rounded=0;whiteSpace=wrap;html=1;" parent="1" vertex="1">
          <mxGeometry x="202" y="1800" width="120" height="40" as="geometry" />
        </mxCell>
        <mxCell id="67OT6ql0mRP8qZp6wruK-213" style="edgeStyle=orthogonalEdgeStyle;rounded=0;orthogonalLoop=1;jettySize=auto;html=1;exitX=0.5;exitY=1;exitDx=0;exitDy=0;entryX=0.5;entryY=0;entryDx=0;entryDy=0;" parent="1" source="67OT6ql0mRP8qZp6wruK-194" target="67OT6ql0mRP8qZp6wruK-192" edge="1">
          <mxGeometry relative="1" as="geometry" />
        </mxCell>
        <mxCell id="67OT6ql0mRP8qZp6wruK-214" value="Assign To Studio&lt;br&gt;Action: Assign to team &quot;studio&quot;" style="edgeLabel;html=1;align=center;verticalAlign=middle;resizable=0;points=[];" parent="67OT6ql0mRP8qZp6wruK-213" vertex="1" connectable="0">
          <mxGeometry x="-0.2" y="1" relative="1" as="geometry">
            <mxPoint x="1" y="8" as="offset" />
          </mxGeometry>
        </mxCell>
        <mxCell id="67OT6ql0mRP8qZp6wruK-194" value="Awaiting Client Services" style="rounded=0;whiteSpace=wrap;html=1;" parent="1" vertex="1">
          <mxGeometry x="202" y="1680" width="120" height="40" as="geometry" />
        </mxCell>
        <mxCell id="67OT6ql0mRP8qZp6wruK-221" style="edgeStyle=orthogonalEdgeStyle;rounded=0;orthogonalLoop=1;jettySize=auto;html=1;exitX=0.5;exitY=1;exitDx=0;exitDy=0;entryX=0.5;entryY=0;entryDx=0;entryDy=0;" parent="1" source="67OT6ql0mRP8qZp6wruK-195" target="67OT6ql0mRP8qZp6wruK-196" edge="1">
          <mxGeometry relative="1" as="geometry" />
        </mxCell>
        <mxCell id="67OT6ql0mRP8qZp6wruK-222" value="Work Complete&lt;br&gt;Action: assign to role &quot;studio-manager&quot;" style="edgeLabel;html=1;align=center;verticalAlign=middle;resizable=0;points=[];" parent="67OT6ql0mRP8qZp6wruK-221" vertex="1" connectable="0">
          <mxGeometry x="-0.3" y="-1" relative="1" as="geometry">
            <mxPoint x="3" y="12" as="offset" />
          </mxGeometry>
        </mxCell>
        <mxCell id="67OT6ql0mRP8qZp6wruK-195" value="In Progress With Studio Worker" style="rounded=0;whiteSpace=wrap;html=1;" parent="1" vertex="1">
          <mxGeometry x="202" y="1920" width="120" height="40" as="geometry" />
        </mxCell>
        <mxCell id="67OT6ql0mRP8qZp6wruK-223" style="edgeStyle=orthogonalEdgeStyle;rounded=0;orthogonalLoop=1;jettySize=auto;html=1;exitX=0;exitY=0.5;exitDx=0;exitDy=0;entryX=0;entryY=0.5;entryDx=0;entryDy=0;" parent="1" source="67OT6ql0mRP8qZp6wruK-196" target="67OT6ql0mRP8qZp6wruK-195" edge="1">
          <mxGeometry relative="1" as="geometry">
            <Array as="points">
              <mxPoint x="82" y="2060" />
              <mxPoint x="82" y="1940" />
            </Array>
          </mxGeometry>
        </mxCell>
        <mxCell id="67OT6ql0mRP8qZp6wruK-224" value="Reject Studio Work&lt;br&gt;Action: Assign to role &quot;studio&quot;" style="edgeLabel;html=1;align=center;verticalAlign=middle;resizable=0;points=[];" parent="67OT6ql0mRP8qZp6wruK-223" vertex="1" connectable="0">
          <mxGeometry x="0.0611" y="2" relative="1" as="geometry">
            <mxPoint as="offset" />
          </mxGeometry>
        </mxCell>
        <mxCell id="67OT6ql0mRP8qZp6wruK-225" style="edgeStyle=orthogonalEdgeStyle;rounded=0;orthogonalLoop=1;jettySize=auto;html=1;exitX=0.5;exitY=1;exitDx=0;exitDy=0;entryX=0.5;entryY=0;entryDx=0;entryDy=0;" parent="1" source="67OT6ql0mRP8qZp6wruK-196" target="67OT6ql0mRP8qZp6wruK-197" edge="1">
          <mxGeometry relative="1" as="geometry" />
        </mxCell>
        <mxCell id="67OT6ql0mRP8qZp6wruK-226" value="Approve Studio Work&lt;br&gt;Action: Assign to role &quot;client-services&quot;" style="edgeLabel;html=1;align=center;verticalAlign=middle;resizable=0;points=[];" parent="67OT6ql0mRP8qZp6wruK-225" vertex="1" connectable="0">
          <mxGeometry x="-0.25" relative="1" as="geometry">
            <mxPoint y="10" as="offset" />
          </mxGeometry>
        </mxCell>
        <mxCell id="67OT6ql0mRP8qZp6wruK-196" value="In Progress With Studio Manager" style="rounded=0;whiteSpace=wrap;html=1;" parent="1" vertex="1">
          <mxGeometry x="202" y="2040" width="120" height="40" as="geometry" />
        </mxCell>
        <mxCell id="67OT6ql0mRP8qZp6wruK-227" style="edgeStyle=orthogonalEdgeStyle;rounded=0;orthogonalLoop=1;jettySize=auto;html=1;exitX=0.5;exitY=1;exitDx=0;exitDy=0;entryX=0.5;entryY=0;entryDx=0;entryDy=0;" parent="1" source="67OT6ql0mRP8qZp6wruK-197" target="67OT6ql0mRP8qZp6wruK-198" edge="1">
          <mxGeometry relative="1" as="geometry" />
        </mxCell>
        <mxCell id="67OT6ql0mRP8qZp6wruK-228" value="Approve Studio Work&lt;br&gt;Action: Return to creator" style="edgeLabel;html=1;align=center;verticalAlign=middle;resizable=0;points=[];" parent="67OT6ql0mRP8qZp6wruK-227" vertex="1" connectable="0">
          <mxGeometry x="-0.2" y="-1" relative="1" as="geometry">
            <mxPoint x="1" y="8" as="offset" />
          </mxGeometry>
        </mxCell>
        <mxCell id="67OT6ql0mRP8qZp6wruK-229" style="edgeStyle=orthogonalEdgeStyle;rounded=0;orthogonalLoop=1;jettySize=auto;html=1;exitX=1;exitY=0.5;exitDx=0;exitDy=0;entryX=0;entryY=0.5;entryDx=0;entryDy=0;" parent="1" source="67OT6ql0mRP8qZp6wruK-197" target="67OT6ql0mRP8qZp6wruK-199" edge="1">
          <mxGeometry relative="1" as="geometry" />
        </mxCell>
        <mxCell id="67OT6ql0mRP8qZp6wruK-230" value="Reject Studio Work&lt;br&gt;Action: Assign to team&lt;br&gt;&amp;nbsp;&quot;studio&quot;" style="edgeLabel;html=1;align=center;verticalAlign=middle;resizable=0;points=[];" parent="67OT6ql0mRP8qZp6wruK-229" vertex="1" connectable="0">
          <mxGeometry x="-0.1875" relative="1" as="geometry">
            <mxPoint x="19" as="offset" />
          </mxGeometry>
        </mxCell>
        <mxCell id="67OT6ql0mRP8qZp6wruK-197" value="Awaiting Client Services" style="rounded=0;whiteSpace=wrap;html=1;" parent="1" vertex="1">
          <mxGeometry x="202" y="2160" width="120" height="40" as="geometry" />
        </mxCell>
        <mxCell id="67OT6ql0mRP8qZp6wruK-232" style="edgeStyle=orthogonalEdgeStyle;rounded=0;orthogonalLoop=1;jettySize=auto;html=1;exitX=0;exitY=0.5;exitDx=0;exitDy=0;entryX=0;entryY=0.5;entryDx=0;entryDy=0;" parent="1" source="67OT6ql0mRP8qZp6wruK-198" target="67OT6ql0mRP8qZp6wruK-197" edge="1">
          <mxGeometry relative="1" as="geometry">
            <Array as="points">
              <mxPoint x="82" y="2300" />
              <mxPoint x="82" y="2180" />
            </Array>
          </mxGeometry>
        </mxCell>
        <mxCell id="67OT6ql0mRP8qZp6wruK-233" value="Reject Work&lt;br&gt;Action: Assign to team &quot;client-services&quot;" style="edgeLabel;html=1;align=center;verticalAlign=middle;resizable=0;points=[];" parent="67OT6ql0mRP8qZp6wruK-232" vertex="1" connectable="0">
          <mxGeometry x="0.0556" relative="1" as="geometry">
            <mxPoint y="10" as="offset" />
          </mxGeometry>
        </mxCell>
        <mxCell id="67OT6ql0mRP8qZp6wruK-234" style="edgeStyle=orthogonalEdgeStyle;rounded=0;orthogonalLoop=1;jettySize=auto;html=1;exitX=0.5;exitY=1;exitDx=0;exitDy=0;entryX=0.5;entryY=0;entryDx=0;entryDy=0;" parent="1" source="67OT6ql0mRP8qZp6wruK-198" target="67OT6ql0mRP8qZp6wruK-231" edge="1">
          <mxGeometry relative="1" as="geometry" />
        </mxCell>
        <mxCell id="67OT6ql0mRP8qZp6wruK-235" value="Approve Studio Work" style="edgeLabel;html=1;align=center;verticalAlign=middle;resizable=0;points=[];" parent="67OT6ql0mRP8qZp6wruK-234" vertex="1" connectable="0">
          <mxGeometry x="-0.175" y="-1" relative="1" as="geometry">
            <mxPoint x="-1" y="7" as="offset" />
          </mxGeometry>
        </mxCell>
        <mxCell id="67OT6ql0mRP8qZp6wruK-198" value="Agency Approved, Awaiting Dealer Approval" style="rounded=0;whiteSpace=wrap;html=1;" parent="1" vertex="1">
          <mxGeometry x="202" y="2280" width="120" height="40" as="geometry" />
        </mxCell>
        <mxCell id="67OT6ql0mRP8qZp6wruK-199" value="Ready for Work, Awaiting Scheduling" style="rounded=0;whiteSpace=wrap;html=1;" parent="1" vertex="1">
          <mxGeometry x="480" y="2160" width="120" height="40" as="geometry" />
        </mxCell>
        <mxCell id="67OT6ql0mRP8qZp6wruK-231" value="Complete" style="rounded=0;whiteSpace=wrap;html=1;" parent="1" vertex="1">
          <mxGeometry x="202" y="2400" width="120" height="40" as="geometry" />
        </mxCell>
        <mxCell id="CWvPOn1pxoy_9W4YT2eB-67" value="Custom Asset Amendment &lt;br&gt;- OLD inc studio manager approval" style="text;html=1;strokeColor=none;fillColor=none;align=center;verticalAlign=middle;rounded=0;fontSize=19;" parent="1" vertex="1">
          <mxGeometry x="960" y="1250" width="60" height="30" as="geometry" />
        </mxCell>
        <mxCell id="CWvPOn1pxoy_9W4YT2eB-68" style="edgeStyle=orthogonalEdgeStyle;rounded=0;orthogonalLoop=1;jettySize=auto;html=1;exitX=0.5;exitY=1;exitDx=0;exitDy=0;entryX=0.5;entryY=0;entryDx=0;entryDy=0;" parent="1" source="CWvPOn1pxoy_9W4YT2eB-70" target="CWvPOn1pxoy_9W4YT2eB-80" edge="1">
          <mxGeometry relative="1" as="geometry" />
        </mxCell>
        <mxCell id="CWvPOn1pxoy_9W4YT2eB-69" value="Request Quotation&lt;br&gt;Actions: 1) Assign to supplier&lt;br&gt;2) Assign to team &quot;client-services&quot;" style="edgeLabel;html=1;align=center;verticalAlign=middle;resizable=0;points=[];" parent="CWvPOn1pxoy_9W4YT2eB-68" vertex="1" connectable="0">
          <mxGeometry x="-0.35" relative="1" as="geometry">
            <mxPoint y="14" as="offset" />
          </mxGeometry>
        </mxCell>
        <mxCell id="CWvPOn1pxoy_9W4YT2eB-70" value="start" style="ellipse;whiteSpace=wrap;html=1;" parent="1" vertex="1">
          <mxGeometry x="955" y="1310" width="50" height="50" as="geometry" />
        </mxCell>
        <mxCell id="CWvPOn1pxoy_9W4YT2eB-71" style="edgeStyle=orthogonalEdgeStyle;rounded=0;orthogonalLoop=1;jettySize=auto;html=1;exitX=0.5;exitY=1;exitDx=0;exitDy=0;entryX=0.5;entryY=0;entryDx=0;entryDy=0;" parent="1" source="CWvPOn1pxoy_9W4YT2eB-77" target="CWvPOn1pxoy_9W4YT2eB-93" edge="1">
          <mxGeometry relative="1" as="geometry" />
        </mxCell>
        <mxCell id="CWvPOn1pxoy_9W4YT2eB-72" value="Approve Quotation&lt;br&gt;Actions: 1) Approve quote&lt;br&gt;2) Assign to team &quot;client-services&quot;" style="edgeLabel;html=1;align=center;verticalAlign=middle;resizable=0;points=[];" parent="CWvPOn1pxoy_9W4YT2eB-71" vertex="1" connectable="0">
          <mxGeometry x="0.4769" relative="1" as="geometry">
            <mxPoint x="-4" y="-19" as="offset" />
          </mxGeometry>
        </mxCell>
        <mxCell id="CWvPOn1pxoy_9W4YT2eB-73" style="edgeStyle=orthogonalEdgeStyle;rounded=0;orthogonalLoop=1;jettySize=auto;html=1;exitX=1;exitY=0.75;exitDx=0;exitDy=0;entryX=0.5;entryY=1;entryDx=0;entryDy=0;" parent="1" source="CWvPOn1pxoy_9W4YT2eB-77" target="CWvPOn1pxoy_9W4YT2eB-83" edge="1">
          <mxGeometry relative="1" as="geometry">
            <mxPoint x="1260" y="1620" as="targetPoint" />
            <Array as="points">
              <mxPoint x="1080" y="1590" />
              <mxPoint x="1080" y="1640" />
              <mxPoint x="1260" y="1640" />
            </Array>
          </mxGeometry>
        </mxCell>
        <mxCell id="CWvPOn1pxoy_9W4YT2eB-74" value="More Information Required&lt;br&gt;Action: Return to creator" style="edgeLabel;html=1;align=center;verticalAlign=middle;resizable=0;points=[];" parent="CWvPOn1pxoy_9W4YT2eB-73" vertex="1" connectable="0">
          <mxGeometry x="-0.425" y="-3" relative="1" as="geometry">
            <mxPoint x="95" y="1" as="offset" />
          </mxGeometry>
        </mxCell>
        <mxCell id="CWvPOn1pxoy_9W4YT2eB-75" style="edgeStyle=orthogonalEdgeStyle;rounded=0;orthogonalLoop=1;jettySize=auto;html=1;exitX=0;exitY=0.5;exitDx=0;exitDy=0;entryX=0;entryY=0.5;entryDx=0;entryDy=0;" parent="1" source="CWvPOn1pxoy_9W4YT2eB-77" target="CWvPOn1pxoy_9W4YT2eB-80" edge="1">
          <mxGeometry relative="1" as="geometry">
            <Array as="points">
              <mxPoint x="800" y="1580" />
              <mxPoint x="800" y="1460" />
            </Array>
          </mxGeometry>
        </mxCell>
        <mxCell id="CWvPOn1pxoy_9W4YT2eB-76" value="Reject Quotation&lt;br style=&quot;border-color: var(--border-color); background-color: rgb(251, 251, 251);&quot;&gt;&lt;span style=&quot;border-color: var(--border-color);&quot;&gt;Action: Assign to team &quot;client-services&quot;&lt;/span&gt;" style="edgeLabel;html=1;align=center;verticalAlign=middle;resizable=0;points=[];" parent="CWvPOn1pxoy_9W4YT2eB-75" vertex="1" connectable="0">
          <mxGeometry x="-0.0056" y="2" relative="1" as="geometry">
            <mxPoint as="offset" />
          </mxGeometry>
        </mxCell>
        <mxCell id="CWvPOn1pxoy_9W4YT2eB-77" value="Awaiting Quote Approval" style="rounded=0;whiteSpace=wrap;html=1;" parent="1" vertex="1">
          <mxGeometry x="920" y="1560" width="120" height="40" as="geometry" />
        </mxCell>
        <mxCell id="CWvPOn1pxoy_9W4YT2eB-78" style="edgeStyle=orthogonalEdgeStyle;rounded=0;orthogonalLoop=1;jettySize=auto;html=1;exitX=0.5;exitY=1;exitDx=0;exitDy=0;entryX=0.5;entryY=0;entryDx=0;entryDy=0;" parent="1" source="CWvPOn1pxoy_9W4YT2eB-80" target="CWvPOn1pxoy_9W4YT2eB-77" edge="1">
          <mxGeometry relative="1" as="geometry" />
        </mxCell>
        <mxCell id="CWvPOn1pxoy_9W4YT2eB-79" value="Add a Quotation&lt;br&gt;Actions: 1) Add a quote form&lt;br&gt;2) Return to owner" style="edgeLabel;html=1;align=center;verticalAlign=middle;resizable=0;points=[];" parent="CWvPOn1pxoy_9W4YT2eB-78" vertex="1" connectable="0">
          <mxGeometry x="-0.3333" y="1" relative="1" as="geometry">
            <mxPoint x="-1" y="13" as="offset" />
          </mxGeometry>
        </mxCell>
        <mxCell id="CWvPOn1pxoy_9W4YT2eB-80" value="Awaiting Quote" style="rounded=0;whiteSpace=wrap;html=1;" parent="1" vertex="1">
          <mxGeometry x="918" y="1440" width="120" height="40" as="geometry" />
        </mxCell>
        <mxCell id="CWvPOn1pxoy_9W4YT2eB-81" style="edgeStyle=orthogonalEdgeStyle;rounded=0;orthogonalLoop=1;jettySize=auto;html=1;entryX=1;entryY=0.25;entryDx=0;entryDy=0;exitX=0.5;exitY=0;exitDx=0;exitDy=0;" parent="1" source="CWvPOn1pxoy_9W4YT2eB-83" target="CWvPOn1pxoy_9W4YT2eB-77" edge="1">
          <mxGeometry relative="1" as="geometry">
            <mxPoint x="1260" y="1550" as="sourcePoint" />
            <Array as="points">
              <mxPoint x="1260" y="1520" />
              <mxPoint x="1080" y="1520" />
              <mxPoint x="1080" y="1570" />
            </Array>
          </mxGeometry>
        </mxCell>
        <mxCell id="CWvPOn1pxoy_9W4YT2eB-82" value="More Information Provided&lt;br&gt;Action: Assign to team &lt;br&gt;&quot;client-services&quot;" style="edgeLabel;html=1;align=center;verticalAlign=middle;resizable=0;points=[];" parent="CWvPOn1pxoy_9W4YT2eB-81" vertex="1" connectable="0">
          <mxGeometry x="0.1136" y="2" relative="1" as="geometry">
            <mxPoint x="45" y="-3" as="offset" />
          </mxGeometry>
        </mxCell>
        <mxCell id="CWvPOn1pxoy_9W4YT2eB-83" value="More Information Required" style="rounded=0;whiteSpace=wrap;html=1;" parent="1" vertex="1">
          <mxGeometry x="1200" y="1560" width="120" height="40" as="geometry" />
        </mxCell>
        <mxCell id="CWvPOn1pxoy_9W4YT2eB-84" style="edgeStyle=orthogonalEdgeStyle;rounded=0;orthogonalLoop=1;jettySize=auto;html=1;exitX=0;exitY=0.5;exitDx=0;exitDy=0;entryX=0;entryY=0.5;entryDx=0;entryDy=0;" parent="1" source="CWvPOn1pxoy_9W4YT2eB-90" target="CWvPOn1pxoy_9W4YT2eB-93" edge="1">
          <mxGeometry relative="1" as="geometry">
            <Array as="points">
              <mxPoint x="802" y="1820" />
              <mxPoint x="802" y="1700" />
            </Array>
          </mxGeometry>
        </mxCell>
        <mxCell id="CWvPOn1pxoy_9W4YT2eB-85" value="Return To Client Services&lt;br&gt;Action: Assign to team &quot;client-services&quot;" style="edgeLabel;html=1;align=center;verticalAlign=middle;resizable=0;points=[];" parent="CWvPOn1pxoy_9W4YT2eB-84" vertex="1" connectable="0">
          <mxGeometry x="0.1111" y="1" relative="1" as="geometry">
            <mxPoint x="1" y="20" as="offset" />
          </mxGeometry>
        </mxCell>
        <mxCell id="CWvPOn1pxoy_9W4YT2eB-86" style="edgeStyle=orthogonalEdgeStyle;rounded=0;orthogonalLoop=1;jettySize=auto;html=1;exitX=0.25;exitY=1;exitDx=0;exitDy=0;entryX=0.25;entryY=0;entryDx=0;entryDy=0;" parent="1" edge="1">
          <mxGeometry relative="1" as="geometry">
            <mxPoint x="949.5" y="1840" as="sourcePoint" />
            <mxPoint x="949.5" y="1920" as="targetPoint" />
            <Array as="points">
              <mxPoint x="950" y="1880" />
              <mxPoint x="950" y="1880" />
            </Array>
          </mxGeometry>
        </mxCell>
        <mxCell id="CWvPOn1pxoy_9W4YT2eB-87" value="Move To In Progress With &lt;br&gt;Specific Studio Worker&lt;br&gt;Action: Assign to user in role &quot;studio&quot;" style="edgeLabel;html=1;align=center;verticalAlign=middle;resizable=0;points=[];" parent="CWvPOn1pxoy_9W4YT2eB-86" vertex="1" connectable="0">
          <mxGeometry x="-0.2" y="1" relative="1" as="geometry">
            <mxPoint x="-53" y="2" as="offset" />
          </mxGeometry>
        </mxCell>
        <mxCell id="CWvPOn1pxoy_9W4YT2eB-88" style="edgeStyle=orthogonalEdgeStyle;rounded=0;orthogonalLoop=1;jettySize=auto;html=1;exitX=0.75;exitY=1;exitDx=0;exitDy=0;entryX=0.75;entryY=0;entryDx=0;entryDy=0;" parent="1" source="CWvPOn1pxoy_9W4YT2eB-90" target="CWvPOn1pxoy_9W4YT2eB-96" edge="1">
          <mxGeometry relative="1" as="geometry" />
        </mxCell>
        <mxCell id="CWvPOn1pxoy_9W4YT2eB-89" value="Move To In Progress With Me&lt;br&gt;Action: assign to active user" style="edgeLabel;html=1;align=center;verticalAlign=middle;resizable=0;points=[];" parent="CWvPOn1pxoy_9W4YT2eB-88" vertex="1" connectable="0">
          <mxGeometry x="-0.3" y="3" relative="1" as="geometry">
            <mxPoint x="57" y="6" as="offset" />
          </mxGeometry>
        </mxCell>
        <mxCell id="CWvPOn1pxoy_9W4YT2eB-90" value="Ready for Work, Awaiting Scheduling" style="rounded=0;whiteSpace=wrap;html=1;" parent="1" vertex="1">
          <mxGeometry x="922" y="1800" width="120" height="40" as="geometry" />
        </mxCell>
        <mxCell id="CWvPOn1pxoy_9W4YT2eB-91" style="edgeStyle=orthogonalEdgeStyle;rounded=0;orthogonalLoop=1;jettySize=auto;html=1;exitX=0.5;exitY=1;exitDx=0;exitDy=0;entryX=0.5;entryY=0;entryDx=0;entryDy=0;" parent="1" source="CWvPOn1pxoy_9W4YT2eB-93" target="CWvPOn1pxoy_9W4YT2eB-90" edge="1">
          <mxGeometry relative="1" as="geometry" />
        </mxCell>
        <mxCell id="CWvPOn1pxoy_9W4YT2eB-92" value="Assign To Studio&lt;br&gt;Action: Assign to team &quot;studio&quot;" style="edgeLabel;html=1;align=center;verticalAlign=middle;resizable=0;points=[];" parent="CWvPOn1pxoy_9W4YT2eB-91" vertex="1" connectable="0">
          <mxGeometry x="-0.2" y="1" relative="1" as="geometry">
            <mxPoint x="1" y="8" as="offset" />
          </mxGeometry>
        </mxCell>
        <mxCell id="CWvPOn1pxoy_9W4YT2eB-93" value="Awaiting Client Services" style="rounded=0;whiteSpace=wrap;html=1;" parent="1" vertex="1">
          <mxGeometry x="922" y="1680" width="120" height="40" as="geometry" />
        </mxCell>
        <mxCell id="CWvPOn1pxoy_9W4YT2eB-94" style="edgeStyle=orthogonalEdgeStyle;rounded=0;orthogonalLoop=1;jettySize=auto;html=1;exitX=0.5;exitY=1;exitDx=0;exitDy=0;entryX=0.5;entryY=0;entryDx=0;entryDy=0;" parent="1" source="CWvPOn1pxoy_9W4YT2eB-96" target="CWvPOn1pxoy_9W4YT2eB-101" edge="1">
          <mxGeometry relative="1" as="geometry" />
        </mxCell>
        <mxCell id="CWvPOn1pxoy_9W4YT2eB-95" value="Work Complete&lt;br&gt;Action: assign to role &quot;studio-manager&quot;" style="edgeLabel;html=1;align=center;verticalAlign=middle;resizable=0;points=[];" parent="CWvPOn1pxoy_9W4YT2eB-94" vertex="1" connectable="0">
          <mxGeometry x="-0.3" y="-1" relative="1" as="geometry">
            <mxPoint x="3" y="12" as="offset" />
          </mxGeometry>
        </mxCell>
        <mxCell id="CWvPOn1pxoy_9W4YT2eB-96" value="In Progress With Studio Worker" style="rounded=0;whiteSpace=wrap;html=1;" parent="1" vertex="1">
          <mxGeometry x="922" y="1920" width="120" height="40" as="geometry" />
        </mxCell>
        <mxCell id="CWvPOn1pxoy_9W4YT2eB-97" style="edgeStyle=orthogonalEdgeStyle;rounded=0;orthogonalLoop=1;jettySize=auto;html=1;exitX=0;exitY=0.5;exitDx=0;exitDy=0;entryX=0;entryY=0.5;entryDx=0;entryDy=0;" parent="1" source="CWvPOn1pxoy_9W4YT2eB-101" target="CWvPOn1pxoy_9W4YT2eB-96" edge="1">
          <mxGeometry relative="1" as="geometry">
            <Array as="points">
              <mxPoint x="802" y="2060" />
              <mxPoint x="802" y="1940" />
            </Array>
          </mxGeometry>
        </mxCell>
        <mxCell id="CWvPOn1pxoy_9W4YT2eB-98" value="Reject Studio Work&lt;br&gt;Action: Assign to role &quot;studio&quot;" style="edgeLabel;html=1;align=center;verticalAlign=middle;resizable=0;points=[];" parent="CWvPOn1pxoy_9W4YT2eB-97" vertex="1" connectable="0">
          <mxGeometry x="0.0611" y="2" relative="1" as="geometry">
            <mxPoint as="offset" />
          </mxGeometry>
        </mxCell>
        <mxCell id="CWvPOn1pxoy_9W4YT2eB-99" style="edgeStyle=orthogonalEdgeStyle;rounded=0;orthogonalLoop=1;jettySize=auto;html=1;exitX=0.5;exitY=1;exitDx=0;exitDy=0;entryX=0.5;entryY=0;entryDx=0;entryDy=0;" parent="1" source="CWvPOn1pxoy_9W4YT2eB-101" target="CWvPOn1pxoy_9W4YT2eB-106" edge="1">
          <mxGeometry relative="1" as="geometry" />
        </mxCell>
        <mxCell id="CWvPOn1pxoy_9W4YT2eB-100" value="Approve Studio Work&lt;br&gt;Action: Assign to role &quot;client-services&quot;" style="edgeLabel;html=1;align=center;verticalAlign=middle;resizable=0;points=[];" parent="CWvPOn1pxoy_9W4YT2eB-99" vertex="1" connectable="0">
          <mxGeometry x="-0.25" relative="1" as="geometry">
            <mxPoint y="10" as="offset" />
          </mxGeometry>
        </mxCell>
        <mxCell id="CWvPOn1pxoy_9W4YT2eB-101" value="In Progress With Studio Manager" style="rounded=0;whiteSpace=wrap;html=1;" parent="1" vertex="1">
          <mxGeometry x="922" y="2040" width="120" height="40" as="geometry" />
        </mxCell>
        <mxCell id="CWvPOn1pxoy_9W4YT2eB-102" style="edgeStyle=orthogonalEdgeStyle;rounded=0;orthogonalLoop=1;jettySize=auto;html=1;exitX=0.5;exitY=1;exitDx=0;exitDy=0;entryX=0.5;entryY=0;entryDx=0;entryDy=0;" parent="1" source="CWvPOn1pxoy_9W4YT2eB-106" target="CWvPOn1pxoy_9W4YT2eB-111" edge="1">
          <mxGeometry relative="1" as="geometry" />
        </mxCell>
        <mxCell id="CWvPOn1pxoy_9W4YT2eB-103" value="Approve Studio Work&lt;br&gt;Action: Return to creator" style="edgeLabel;html=1;align=center;verticalAlign=middle;resizable=0;points=[];" parent="CWvPOn1pxoy_9W4YT2eB-102" vertex="1" connectable="0">
          <mxGeometry x="-0.2" y="-1" relative="1" as="geometry">
            <mxPoint x="1" y="8" as="offset" />
          </mxGeometry>
        </mxCell>
        <mxCell id="CWvPOn1pxoy_9W4YT2eB-104" style="edgeStyle=orthogonalEdgeStyle;rounded=0;orthogonalLoop=1;jettySize=auto;html=1;exitX=1;exitY=0.5;exitDx=0;exitDy=0;entryX=0;entryY=0.5;entryDx=0;entryDy=0;" parent="1" source="CWvPOn1pxoy_9W4YT2eB-106" target="CWvPOn1pxoy_9W4YT2eB-112" edge="1">
          <mxGeometry relative="1" as="geometry" />
        </mxCell>
        <mxCell id="CWvPOn1pxoy_9W4YT2eB-105" value="Reject Studio Work&lt;br&gt;Action: Assign to team&lt;br&gt;&amp;nbsp;&quot;studio&quot;" style="edgeLabel;html=1;align=center;verticalAlign=middle;resizable=0;points=[];" parent="CWvPOn1pxoy_9W4YT2eB-104" vertex="1" connectable="0">
          <mxGeometry x="-0.1875" relative="1" as="geometry">
            <mxPoint x="19" as="offset" />
          </mxGeometry>
        </mxCell>
        <mxCell id="CWvPOn1pxoy_9W4YT2eB-106" value="Awaiting Client Services" style="rounded=0;whiteSpace=wrap;html=1;" parent="1" vertex="1">
          <mxGeometry x="922" y="2160" width="120" height="40" as="geometry" />
        </mxCell>
        <mxCell id="CWvPOn1pxoy_9W4YT2eB-107" style="edgeStyle=orthogonalEdgeStyle;rounded=0;orthogonalLoop=1;jettySize=auto;html=1;exitX=0;exitY=0.5;exitDx=0;exitDy=0;entryX=0;entryY=0.5;entryDx=0;entryDy=0;" parent="1" source="CWvPOn1pxoy_9W4YT2eB-111" target="CWvPOn1pxoy_9W4YT2eB-106" edge="1">
          <mxGeometry relative="1" as="geometry">
            <Array as="points">
              <mxPoint x="802" y="2300" />
              <mxPoint x="802" y="2180" />
            </Array>
          </mxGeometry>
        </mxCell>
        <mxCell id="CWvPOn1pxoy_9W4YT2eB-108" value="Reject Work&lt;br&gt;Action: Assign to team &quot;client-services&quot;" style="edgeLabel;html=1;align=center;verticalAlign=middle;resizable=0;points=[];" parent="CWvPOn1pxoy_9W4YT2eB-107" vertex="1" connectable="0">
          <mxGeometry x="0.0556" relative="1" as="geometry">
            <mxPoint y="10" as="offset" />
          </mxGeometry>
        </mxCell>
        <mxCell id="CWvPOn1pxoy_9W4YT2eB-109" style="edgeStyle=orthogonalEdgeStyle;rounded=0;orthogonalLoop=1;jettySize=auto;html=1;exitX=0.5;exitY=1;exitDx=0;exitDy=0;entryX=0.5;entryY=0;entryDx=0;entryDy=0;" parent="1" source="CWvPOn1pxoy_9W4YT2eB-111" target="CWvPOn1pxoy_9W4YT2eB-113" edge="1">
          <mxGeometry relative="1" as="geometry" />
        </mxCell>
        <mxCell id="CWvPOn1pxoy_9W4YT2eB-110" value="Approve Studio Work" style="edgeLabel;html=1;align=center;verticalAlign=middle;resizable=0;points=[];" parent="CWvPOn1pxoy_9W4YT2eB-109" vertex="1" connectable="0">
          <mxGeometry x="-0.175" y="-1" relative="1" as="geometry">
            <mxPoint x="-1" y="7" as="offset" />
          </mxGeometry>
        </mxCell>
        <mxCell id="CWvPOn1pxoy_9W4YT2eB-111" value="Agency Approved, Awaiting Dealer Approval" style="rounded=0;whiteSpace=wrap;html=1;" parent="1" vertex="1">
          <mxGeometry x="922" y="2280" width="120" height="40" as="geometry" />
        </mxCell>
        <mxCell id="CWvPOn1pxoy_9W4YT2eB-112" value="Ready for Work, Awaiting Scheduling" style="rounded=0;whiteSpace=wrap;html=1;" parent="1" vertex="1">
          <mxGeometry x="1200" y="2160" width="120" height="40" as="geometry" />
        </mxCell>
        <mxCell id="CWvPOn1pxoy_9W4YT2eB-113" value="Complete" style="rounded=0;whiteSpace=wrap;html=1;" parent="1" vertex="1">
          <mxGeometry x="922" y="2400" width="120" height="40" as="geometry" />
        </mxCell>
        <mxCell id="CWvPOn1pxoy_9W4YT2eB-114" value="Dealer Web Page" style="text;html=1;strokeColor=none;fillColor=none;align=center;verticalAlign=middle;rounded=0;fontSize=19;" parent="1" vertex="1">
          <mxGeometry x="1805" y="1250" width="60" height="30" as="geometry" />
        </mxCell>
        <mxCell id="CWvPOn1pxoy_9W4YT2eB-117" value="" style="edgeStyle=orthogonalEdgeStyle;rounded=0;orthogonalLoop=1;jettySize=auto;html=1;" parent="1" source="CWvPOn1pxoy_9W4YT2eB-115" target="CWvPOn1pxoy_9W4YT2eB-116" edge="1">
          <mxGeometry relative="1" as="geometry" />
        </mxCell>
        <mxCell id="CWvPOn1pxoy_9W4YT2eB-121" value="Submit For Approval&lt;br&gt;Action: Escalate to role &quot;client-services&quot;" style="edgeLabel;html=1;align=center;verticalAlign=middle;resizable=0;points=[];" parent="CWvPOn1pxoy_9W4YT2eB-117" vertex="1" connectable="0">
          <mxGeometry x="-0.225" y="-1" relative="1" as="geometry">
            <mxPoint x="1" y="9" as="offset" />
          </mxGeometry>
        </mxCell>
        <mxCell id="CWvPOn1pxoy_9W4YT2eB-115" value="start" style="ellipse;whiteSpace=wrap;html=1;" parent="1" vertex="1">
          <mxGeometry x="1800" y="1320" width="40" height="40" as="geometry" />
        </mxCell>
        <mxCell id="CWvPOn1pxoy_9W4YT2eB-122" style="edgeStyle=orthogonalEdgeStyle;rounded=0;orthogonalLoop=1;jettySize=auto;html=1;exitX=0.25;exitY=1;exitDx=0;exitDy=0;entryX=0.5;entryY=0;entryDx=0;entryDy=0;" parent="1" source="CWvPOn1pxoy_9W4YT2eB-116" target="CWvPOn1pxoy_9W4YT2eB-118" edge="1">
          <mxGeometry relative="1" as="geometry" />
        </mxCell>
        <mxCell id="CWvPOn1pxoy_9W4YT2eB-123" value="Approve&lt;br&gt;Action: Notify creator" style="edgeLabel;html=1;align=center;verticalAlign=middle;resizable=0;points=[];" parent="CWvPOn1pxoy_9W4YT2eB-122" vertex="1" connectable="0">
          <mxGeometry x="-0.2" y="1" relative="1" as="geometry">
            <mxPoint x="-18" as="offset" />
          </mxGeometry>
        </mxCell>
        <mxCell id="CWvPOn1pxoy_9W4YT2eB-124" style="edgeStyle=orthogonalEdgeStyle;rounded=0;orthogonalLoop=1;jettySize=auto;html=1;exitX=0.75;exitY=1;exitDx=0;exitDy=0;" parent="1" source="CWvPOn1pxoy_9W4YT2eB-116" target="CWvPOn1pxoy_9W4YT2eB-120" edge="1">
          <mxGeometry relative="1" as="geometry" />
        </mxCell>
        <mxCell id="CWvPOn1pxoy_9W4YT2eB-125" value="Decline" style="edgeLabel;html=1;align=center;verticalAlign=middle;resizable=0;points=[];" parent="CWvPOn1pxoy_9W4YT2eB-124" vertex="1" connectable="0">
          <mxGeometry x="-0.088" y="1" relative="1" as="geometry">
            <mxPoint x="6" as="offset" />
          </mxGeometry>
        </mxCell>
        <mxCell id="CWvPOn1pxoy_9W4YT2eB-116" value="Awaiting Agency Approval" style="rounded=0;whiteSpace=wrap;html=1;" parent="1" vertex="1">
          <mxGeometry x="1760" y="1440" width="120" height="40" as="geometry" />
        </mxCell>
        <mxCell id="CWvPOn1pxoy_9W4YT2eB-118" value="Approved" style="rounded=0;whiteSpace=wrap;html=1;" parent="1" vertex="1">
          <mxGeometry x="1560" y="1560" width="120" height="40" as="geometry" />
        </mxCell>
        <mxCell id="CWvPOn1pxoy_9W4YT2eB-120" value="Rejected" style="rounded=0;whiteSpace=wrap;html=1;" parent="1" vertex="1">
          <mxGeometry x="1960" y="1560" width="120" height="40" as="geometry" />
        </mxCell>
        <mxCell id="0Vi8RChmk7Yy_pR4jddX-2" value="" style="edgeStyle=orthogonalEdgeStyle;rounded=0;orthogonalLoop=1;jettySize=auto;html=1;exitX=0.5;exitY=1;exitDx=0;exitDy=0;" parent="1" source="67OT6ql0mRP8qZp6wruK-26" target="0Vi8RChmk7Yy_pR4jddX-1" edge="1">
          <mxGeometry relative="1" as="geometry">
            <mxPoint x="739" y="-2" as="sourcePoint" />
            <mxPoint x="737" y="152" as="targetPoint" />
          </mxGeometry>
        </mxCell>
        <mxCell id="0Vi8RChmk7Yy_pR4jddX-3" value="Begin Area Manager Approval" style="edgeLabel;html=1;align=center;verticalAlign=middle;resizable=0;points=[];" parent="0Vi8RChmk7Yy_pR4jddX-2" vertex="1" connectable="0">
          <mxGeometry x="-0.2857" y="-2" relative="1" as="geometry">
            <mxPoint as="offset" />
          </mxGeometry>
        </mxCell>
        <mxCell id="0Vi8RChmk7Yy_pR4jddX-1" value="Area Manager Approval in Progress" style="rounded=0;whiteSpace=wrap;html=1;" parent="1" vertex="1">
          <mxGeometry x="679" y="40" width="120" height="40" as="geometry" />
        </mxCell>
        <mxCell id="0Vi8RChmk7Yy_pR4jddX-5" value="" style="edgeStyle=orthogonalEdgeStyle;rounded=0;orthogonalLoop=1;jettySize=auto;html=1;exitX=0.5;exitY=1;exitDx=0;exitDy=0;" parent="1" source="67OT6ql0mRP8qZp6wruK-27" target="0Vi8RChmk7Yy_pR4jddX-4" edge="1">
          <mxGeometry relative="1" as="geometry">
            <mxPoint x="737" y="160" as="sourcePoint" />
            <mxPoint x="739" y="307" as="targetPoint" />
          </mxGeometry>
        </mxCell>
        <mxCell id="0Vi8RChmk7Yy_pR4jddX-6" value="Approve&lt;br style=&quot;border-color: var(--border-color);&quot;&gt;Action: Escalate to role: head-office" style="edgeLabel;html=1;align=center;verticalAlign=middle;resizable=0;points=[];" parent="0Vi8RChmk7Yy_pR4jddX-5" vertex="1" connectable="0">
          <mxGeometry x="-0.175" y="1" relative="1" as="geometry">
            <mxPoint x="1" y="94" as="offset" />
          </mxGeometry>
        </mxCell>
        <mxCell id="0Vi8RChmk7Yy_pR4jddX-7" value="Begin Area Manager Approval" style="edgeLabel;html=1;align=center;verticalAlign=middle;resizable=0;points=[];" parent="0Vi8RChmk7Yy_pR4jddX-5" vertex="1" connectable="0">
          <mxGeometry x="-0.2857" y="1" relative="1" as="geometry">
            <mxPoint as="offset" />
          </mxGeometry>
        </mxCell>
        <mxCell id="0Vi8RChmk7Yy_pR4jddX-4" value="Awaiting Area Manager Approval" style="rounded=0;whiteSpace=wrap;html=1;" parent="1" vertex="1">
          <mxGeometry x="677" y="202" width="120" height="40" as="geometry" />
        </mxCell>
        <mxCell id="0Vi8RChmk7Yy_pR4jddX-9" style="edgeStyle=orthogonalEdgeStyle;rounded=0;orthogonalLoop=1;jettySize=auto;html=1;exitX=0.5;exitY=1;exitDx=0;exitDy=0;" parent="1" source="0Vi8RChmk7Yy_pR4jddX-8" target="67OT6ql0mRP8qZp6wruK-29" edge="1">
          <mxGeometry relative="1" as="geometry" />
        </mxCell>
        <mxCell id="0Vi8RChmk7Yy_pR4jddX-11" value="Approve&lt;br style=&quot;border-color: var(--border-color);&quot;&gt;Action: Send notification to creator" style="edgeLabel;html=1;align=center;verticalAlign=middle;resizable=0;points=[];" parent="0Vi8RChmk7Yy_pR4jddX-9" vertex="1" connectable="0">
          <mxGeometry x="-0.75" y="3" relative="1" as="geometry">
            <mxPoint x="-1" y="21" as="offset" />
          </mxGeometry>
        </mxCell>
        <mxCell id="0Vi8RChmk7Yy_pR4jddX-8" value="Approved" style="rounded=0;whiteSpace=wrap;html=1;" parent="1" vertex="1">
          <mxGeometry x="679" y="402" width="120" height="40" as="geometry" />
        </mxCell>
        <mxCell id="ki2eRrJWYG4YQyDlqmND-1" value="Custom Asset Amendment" style="text;html=1;strokeColor=none;fillColor=none;align=center;verticalAlign=middle;rounded=0;fontSize=19;" vertex="1" parent="1">
          <mxGeometry x="1653" y="1757" width="60" height="30" as="geometry" />
        </mxCell>
        <mxCell id="ki2eRrJWYG4YQyDlqmND-2" style="edgeStyle=orthogonalEdgeStyle;rounded=0;orthogonalLoop=1;jettySize=auto;html=1;exitX=0.5;exitY=1;exitDx=0;exitDy=0;entryX=0.5;entryY=0;entryDx=0;entryDy=0;" edge="1" parent="1" source="ki2eRrJWYG4YQyDlqmND-4" target="ki2eRrJWYG4YQyDlqmND-14">
          <mxGeometry relative="1" as="geometry" />
        </mxCell>
        <mxCell id="ki2eRrJWYG4YQyDlqmND-3" value="Request Quotation&lt;br&gt;Actions: 1) Assign to supplier&lt;br&gt;2) Assign to team &quot;client-services&quot;" style="edgeLabel;html=1;align=center;verticalAlign=middle;resizable=0;points=[];" vertex="1" connectable="0" parent="ki2eRrJWYG4YQyDlqmND-2">
          <mxGeometry x="-0.35" relative="1" as="geometry">
            <mxPoint y="14" as="offset" />
          </mxGeometry>
        </mxCell>
        <mxCell id="ki2eRrJWYG4YQyDlqmND-4" value="start" style="ellipse;whiteSpace=wrap;html=1;" vertex="1" parent="1">
          <mxGeometry x="1648" y="1817" width="50" height="50" as="geometry" />
        </mxCell>
        <mxCell id="ki2eRrJWYG4YQyDlqmND-5" style="edgeStyle=orthogonalEdgeStyle;rounded=0;orthogonalLoop=1;jettySize=auto;html=1;exitX=0.5;exitY=1;exitDx=0;exitDy=0;entryX=0.5;entryY=0;entryDx=0;entryDy=0;" edge="1" parent="1" source="ki2eRrJWYG4YQyDlqmND-11" target="ki2eRrJWYG4YQyDlqmND-27">
          <mxGeometry relative="1" as="geometry" />
        </mxCell>
        <mxCell id="ki2eRrJWYG4YQyDlqmND-6" value="Approve Quotation&lt;br&gt;Actions: 1) Approve quote&lt;br&gt;2) Assign to team &quot;client-services&quot;" style="edgeLabel;html=1;align=center;verticalAlign=middle;resizable=0;points=[];" vertex="1" connectable="0" parent="ki2eRrJWYG4YQyDlqmND-5">
          <mxGeometry x="0.4769" relative="1" as="geometry">
            <mxPoint x="-4" y="-19" as="offset" />
          </mxGeometry>
        </mxCell>
        <mxCell id="ki2eRrJWYG4YQyDlqmND-7" style="edgeStyle=orthogonalEdgeStyle;rounded=0;orthogonalLoop=1;jettySize=auto;html=1;exitX=1;exitY=0.75;exitDx=0;exitDy=0;entryX=0.5;entryY=1;entryDx=0;entryDy=0;" edge="1" parent="1" source="ki2eRrJWYG4YQyDlqmND-11" target="ki2eRrJWYG4YQyDlqmND-17">
          <mxGeometry relative="1" as="geometry">
            <mxPoint x="1953" y="2127" as="targetPoint" />
            <Array as="points">
              <mxPoint x="1773" y="2097" />
              <mxPoint x="1773" y="2147" />
              <mxPoint x="1953" y="2147" />
            </Array>
          </mxGeometry>
        </mxCell>
        <mxCell id="ki2eRrJWYG4YQyDlqmND-8" value="More Information Required&lt;br&gt;Action: Return to creator" style="edgeLabel;html=1;align=center;verticalAlign=middle;resizable=0;points=[];" vertex="1" connectable="0" parent="ki2eRrJWYG4YQyDlqmND-7">
          <mxGeometry x="-0.425" y="-3" relative="1" as="geometry">
            <mxPoint x="95" y="1" as="offset" />
          </mxGeometry>
        </mxCell>
        <mxCell id="ki2eRrJWYG4YQyDlqmND-9" style="edgeStyle=orthogonalEdgeStyle;rounded=0;orthogonalLoop=1;jettySize=auto;html=1;exitX=0;exitY=0.5;exitDx=0;exitDy=0;entryX=0;entryY=0.5;entryDx=0;entryDy=0;" edge="1" parent="1" source="ki2eRrJWYG4YQyDlqmND-11" target="ki2eRrJWYG4YQyDlqmND-14">
          <mxGeometry relative="1" as="geometry">
            <Array as="points">
              <mxPoint x="1493" y="2087" />
              <mxPoint x="1493" y="1967" />
            </Array>
          </mxGeometry>
        </mxCell>
        <mxCell id="ki2eRrJWYG4YQyDlqmND-10" value="Reject Quotation&lt;br style=&quot;border-color: var(--border-color); background-color: rgb(251, 251, 251);&quot;&gt;&lt;span style=&quot;border-color: var(--border-color);&quot;&gt;Action: Assign to team &quot;client-services&quot;&lt;/span&gt;" style="edgeLabel;html=1;align=center;verticalAlign=middle;resizable=0;points=[];" vertex="1" connectable="0" parent="ki2eRrJWYG4YQyDlqmND-9">
          <mxGeometry x="-0.0056" y="2" relative="1" as="geometry">
            <mxPoint as="offset" />
          </mxGeometry>
        </mxCell>
        <mxCell id="ki2eRrJWYG4YQyDlqmND-11" value="Awaiting Quote Approval" style="rounded=0;whiteSpace=wrap;html=1;" vertex="1" parent="1">
          <mxGeometry x="1613" y="2067" width="120" height="40" as="geometry" />
        </mxCell>
        <mxCell id="ki2eRrJWYG4YQyDlqmND-12" style="edgeStyle=orthogonalEdgeStyle;rounded=0;orthogonalLoop=1;jettySize=auto;html=1;exitX=0.5;exitY=1;exitDx=0;exitDy=0;entryX=0.5;entryY=0;entryDx=0;entryDy=0;" edge="1" parent="1" source="ki2eRrJWYG4YQyDlqmND-14" target="ki2eRrJWYG4YQyDlqmND-11">
          <mxGeometry relative="1" as="geometry" />
        </mxCell>
        <mxCell id="ki2eRrJWYG4YQyDlqmND-13" value="Add a Quotation&lt;br&gt;Actions: 1) Add a quote form&lt;br&gt;2) Return to owner" style="edgeLabel;html=1;align=center;verticalAlign=middle;resizable=0;points=[];" vertex="1" connectable="0" parent="ki2eRrJWYG4YQyDlqmND-12">
          <mxGeometry x="-0.3333" y="1" relative="1" as="geometry">
            <mxPoint x="-1" y="13" as="offset" />
          </mxGeometry>
        </mxCell>
        <mxCell id="ki2eRrJWYG4YQyDlqmND-14" value="Awaiting Quote" style="rounded=0;whiteSpace=wrap;html=1;" vertex="1" parent="1">
          <mxGeometry x="1611" y="1947" width="120" height="40" as="geometry" />
        </mxCell>
        <mxCell id="ki2eRrJWYG4YQyDlqmND-15" style="edgeStyle=orthogonalEdgeStyle;rounded=0;orthogonalLoop=1;jettySize=auto;html=1;entryX=1;entryY=0.25;entryDx=0;entryDy=0;exitX=0.5;exitY=0;exitDx=0;exitDy=0;" edge="1" parent="1" source="ki2eRrJWYG4YQyDlqmND-17" target="ki2eRrJWYG4YQyDlqmND-11">
          <mxGeometry relative="1" as="geometry">
            <mxPoint x="1953" y="2057" as="sourcePoint" />
            <Array as="points">
              <mxPoint x="1953" y="2027" />
              <mxPoint x="1773" y="2027" />
              <mxPoint x="1773" y="2077" />
            </Array>
          </mxGeometry>
        </mxCell>
        <mxCell id="ki2eRrJWYG4YQyDlqmND-16" value="More Information Provided&lt;br&gt;Action: Assign to team &lt;br&gt;&quot;client-services&quot;" style="edgeLabel;html=1;align=center;verticalAlign=middle;resizable=0;points=[];" vertex="1" connectable="0" parent="ki2eRrJWYG4YQyDlqmND-15">
          <mxGeometry x="0.1136" y="2" relative="1" as="geometry">
            <mxPoint x="45" y="-3" as="offset" />
          </mxGeometry>
        </mxCell>
        <mxCell id="ki2eRrJWYG4YQyDlqmND-17" value="More Information Required" style="rounded=0;whiteSpace=wrap;html=1;" vertex="1" parent="1">
          <mxGeometry x="1893" y="2067" width="120" height="40" as="geometry" />
        </mxCell>
        <mxCell id="ki2eRrJWYG4YQyDlqmND-18" style="edgeStyle=orthogonalEdgeStyle;rounded=0;orthogonalLoop=1;jettySize=auto;html=1;exitX=0;exitY=0.5;exitDx=0;exitDy=0;entryX=0;entryY=0.5;entryDx=0;entryDy=0;" edge="1" parent="1" source="ki2eRrJWYG4YQyDlqmND-24" target="ki2eRrJWYG4YQyDlqmND-27">
          <mxGeometry relative="1" as="geometry">
            <Array as="points">
              <mxPoint x="1495" y="2327" />
              <mxPoint x="1495" y="2207" />
            </Array>
          </mxGeometry>
        </mxCell>
        <mxCell id="ki2eRrJWYG4YQyDlqmND-19" value="Return To Client Services&lt;br&gt;Action: Assign to team &quot;client-services&quot;" style="edgeLabel;html=1;align=center;verticalAlign=middle;resizable=0;points=[];" vertex="1" connectable="0" parent="ki2eRrJWYG4YQyDlqmND-18">
          <mxGeometry x="0.1111" y="1" relative="1" as="geometry">
            <mxPoint x="1" y="20" as="offset" />
          </mxGeometry>
        </mxCell>
        <mxCell id="ki2eRrJWYG4YQyDlqmND-20" style="edgeStyle=orthogonalEdgeStyle;rounded=0;orthogonalLoop=1;jettySize=auto;html=1;exitX=0.25;exitY=1;exitDx=0;exitDy=0;entryX=0.25;entryY=0;entryDx=0;entryDy=0;" edge="1" parent="1">
          <mxGeometry relative="1" as="geometry">
            <mxPoint x="1642.5" y="2347" as="sourcePoint" />
            <mxPoint x="1642.5" y="2427" as="targetPoint" />
            <Array as="points">
              <mxPoint x="1643" y="2387" />
              <mxPoint x="1643" y="2387" />
            </Array>
          </mxGeometry>
        </mxCell>
        <mxCell id="ki2eRrJWYG4YQyDlqmND-21" value="Move To In Progress With &lt;br&gt;Specific Studio Worker&lt;br&gt;Action: Assign to user in role &quot;studio&quot;" style="edgeLabel;html=1;align=center;verticalAlign=middle;resizable=0;points=[];" vertex="1" connectable="0" parent="ki2eRrJWYG4YQyDlqmND-20">
          <mxGeometry x="-0.2" y="1" relative="1" as="geometry">
            <mxPoint x="-53" y="2" as="offset" />
          </mxGeometry>
        </mxCell>
        <mxCell id="ki2eRrJWYG4YQyDlqmND-22" style="edgeStyle=orthogonalEdgeStyle;rounded=0;orthogonalLoop=1;jettySize=auto;html=1;exitX=0.75;exitY=1;exitDx=0;exitDy=0;entryX=0.75;entryY=0;entryDx=0;entryDy=0;" edge="1" parent="1" source="ki2eRrJWYG4YQyDlqmND-24" target="ki2eRrJWYG4YQyDlqmND-30">
          <mxGeometry relative="1" as="geometry" />
        </mxCell>
        <mxCell id="ki2eRrJWYG4YQyDlqmND-23" value="Move To In Progress With Me&lt;br&gt;Action: assign to active user" style="edgeLabel;html=1;align=center;verticalAlign=middle;resizable=0;points=[];" vertex="1" connectable="0" parent="ki2eRrJWYG4YQyDlqmND-22">
          <mxGeometry x="-0.3" y="3" relative="1" as="geometry">
            <mxPoint x="57" y="6" as="offset" />
          </mxGeometry>
        </mxCell>
        <mxCell id="ki2eRrJWYG4YQyDlqmND-24" value="Ready for Work, Awaiting Scheduling" style="rounded=0;whiteSpace=wrap;html=1;" vertex="1" parent="1">
          <mxGeometry x="1615" y="2307" width="120" height="40" as="geometry" />
        </mxCell>
        <mxCell id="ki2eRrJWYG4YQyDlqmND-25" style="edgeStyle=orthogonalEdgeStyle;rounded=0;orthogonalLoop=1;jettySize=auto;html=1;exitX=0.5;exitY=1;exitDx=0;exitDy=0;entryX=0.5;entryY=0;entryDx=0;entryDy=0;" edge="1" parent="1" source="ki2eRrJWYG4YQyDlqmND-27" target="ki2eRrJWYG4YQyDlqmND-24">
          <mxGeometry relative="1" as="geometry" />
        </mxCell>
        <mxCell id="ki2eRrJWYG4YQyDlqmND-26" value="Assign To Studio&lt;br&gt;Action: Assign to team &quot;studio&quot;" style="edgeLabel;html=1;align=center;verticalAlign=middle;resizable=0;points=[];" vertex="1" connectable="0" parent="ki2eRrJWYG4YQyDlqmND-25">
          <mxGeometry x="-0.2" y="1" relative="1" as="geometry">
            <mxPoint x="1" y="8" as="offset" />
          </mxGeometry>
        </mxCell>
        <mxCell id="ki2eRrJWYG4YQyDlqmND-27" value="Awaiting Client Services" style="rounded=0;whiteSpace=wrap;html=1;" vertex="1" parent="1">
          <mxGeometry x="1615" y="2187" width="120" height="40" as="geometry" />
        </mxCell>
        <mxCell id="ki2eRrJWYG4YQyDlqmND-28" style="edgeStyle=orthogonalEdgeStyle;rounded=0;orthogonalLoop=1;jettySize=auto;html=1;exitX=0.5;exitY=1;exitDx=0;exitDy=0;entryX=0.5;entryY=0;entryDx=0;entryDy=0;" edge="1" parent="1" source="ki2eRrJWYG4YQyDlqmND-30" target="ki2eRrJWYG4YQyDlqmND-40">
          <mxGeometry relative="1" as="geometry">
            <mxPoint x="1675" y="2547" as="targetPoint" />
          </mxGeometry>
        </mxCell>
        <mxCell id="ki2eRrJWYG4YQyDlqmND-29" value="Work Complete&lt;br&gt;Action: assign to role &quot;studio-manager&quot;" style="edgeLabel;html=1;align=center;verticalAlign=middle;resizable=0;points=[];" vertex="1" connectable="0" parent="ki2eRrJWYG4YQyDlqmND-28">
          <mxGeometry x="-0.3" y="-1" relative="1" as="geometry">
            <mxPoint x="3" y="12" as="offset" />
          </mxGeometry>
        </mxCell>
        <mxCell id="ki2eRrJWYG4YQyDlqmND-30" value="In Progress With Studio Worker" style="rounded=0;whiteSpace=wrap;html=1;" vertex="1" parent="1">
          <mxGeometry x="1615" y="2427" width="120" height="40" as="geometry" />
        </mxCell>
        <mxCell id="ki2eRrJWYG4YQyDlqmND-36" style="edgeStyle=orthogonalEdgeStyle;rounded=0;orthogonalLoop=1;jettySize=auto;html=1;exitX=0.5;exitY=1;exitDx=0;exitDy=0;entryX=0.5;entryY=0;entryDx=0;entryDy=0;" edge="1" parent="1" source="ki2eRrJWYG4YQyDlqmND-40" target="ki2eRrJWYG4YQyDlqmND-45">
          <mxGeometry relative="1" as="geometry" />
        </mxCell>
        <mxCell id="ki2eRrJWYG4YQyDlqmND-37" value="Approve Studio Work&lt;br&gt;Action: Return to creator" style="edgeLabel;html=1;align=center;verticalAlign=middle;resizable=0;points=[];" vertex="1" connectable="0" parent="ki2eRrJWYG4YQyDlqmND-36">
          <mxGeometry x="-0.2" y="-1" relative="1" as="geometry">
            <mxPoint x="1" y="8" as="offset" />
          </mxGeometry>
        </mxCell>
        <mxCell id="ki2eRrJWYG4YQyDlqmND-38" style="edgeStyle=orthogonalEdgeStyle;rounded=0;orthogonalLoop=1;jettySize=auto;html=1;exitX=1;exitY=0.5;exitDx=0;exitDy=0;entryX=0;entryY=0.5;entryDx=0;entryDy=0;" edge="1" parent="1" source="ki2eRrJWYG4YQyDlqmND-40" target="ki2eRrJWYG4YQyDlqmND-46">
          <mxGeometry relative="1" as="geometry" />
        </mxCell>
        <mxCell id="ki2eRrJWYG4YQyDlqmND-39" value="Reject Studio Work&lt;br&gt;Action: Assign to team&lt;br&gt;&amp;nbsp;&quot;studio&quot;" style="edgeLabel;html=1;align=center;verticalAlign=middle;resizable=0;points=[];" vertex="1" connectable="0" parent="ki2eRrJWYG4YQyDlqmND-38">
          <mxGeometry x="-0.1875" relative="1" as="geometry">
            <mxPoint x="19" as="offset" />
          </mxGeometry>
        </mxCell>
        <mxCell id="ki2eRrJWYG4YQyDlqmND-40" value="Awaiting Client Services" style="rounded=0;whiteSpace=wrap;html=1;" vertex="1" parent="1">
          <mxGeometry x="1615" y="2552" width="120" height="40" as="geometry" />
        </mxCell>
        <mxCell id="ki2eRrJWYG4YQyDlqmND-41" style="edgeStyle=orthogonalEdgeStyle;rounded=0;orthogonalLoop=1;jettySize=auto;html=1;exitX=0;exitY=0.5;exitDx=0;exitDy=0;entryX=0;entryY=0.5;entryDx=0;entryDy=0;" edge="1" parent="1" source="ki2eRrJWYG4YQyDlqmND-45" target="ki2eRrJWYG4YQyDlqmND-40">
          <mxGeometry relative="1" as="geometry">
            <Array as="points">
              <mxPoint x="1495" y="2692" />
              <mxPoint x="1495" y="2572" />
            </Array>
          </mxGeometry>
        </mxCell>
        <mxCell id="ki2eRrJWYG4YQyDlqmND-42" value="Reject Work&lt;br&gt;Action: Assign to team &quot;client-services&quot;" style="edgeLabel;html=1;align=center;verticalAlign=middle;resizable=0;points=[];" vertex="1" connectable="0" parent="ki2eRrJWYG4YQyDlqmND-41">
          <mxGeometry x="0.0556" relative="1" as="geometry">
            <mxPoint y="10" as="offset" />
          </mxGeometry>
        </mxCell>
        <mxCell id="ki2eRrJWYG4YQyDlqmND-43" style="edgeStyle=orthogonalEdgeStyle;rounded=0;orthogonalLoop=1;jettySize=auto;html=1;exitX=0.5;exitY=1;exitDx=0;exitDy=0;entryX=0.5;entryY=0;entryDx=0;entryDy=0;" edge="1" parent="1" source="ki2eRrJWYG4YQyDlqmND-45" target="ki2eRrJWYG4YQyDlqmND-47">
          <mxGeometry relative="1" as="geometry" />
        </mxCell>
        <mxCell id="ki2eRrJWYG4YQyDlqmND-44" value="Approve Studio Work" style="edgeLabel;html=1;align=center;verticalAlign=middle;resizable=0;points=[];" vertex="1" connectable="0" parent="ki2eRrJWYG4YQyDlqmND-43">
          <mxGeometry x="-0.175" y="-1" relative="1" as="geometry">
            <mxPoint x="-1" y="7" as="offset" />
          </mxGeometry>
        </mxCell>
        <mxCell id="ki2eRrJWYG4YQyDlqmND-45" value="Agency Approved, Awaiting Dealer Approval" style="rounded=0;whiteSpace=wrap;html=1;" vertex="1" parent="1">
          <mxGeometry x="1615" y="2672" width="120" height="40" as="geometry" />
        </mxCell>
        <mxCell id="ki2eRrJWYG4YQyDlqmND-46" value="Ready for Work, Awaiting Scheduling" style="rounded=0;whiteSpace=wrap;html=1;" vertex="1" parent="1">
          <mxGeometry x="1893" y="2552" width="120" height="40" as="geometry" />
        </mxCell>
        <mxCell id="ki2eRrJWYG4YQyDlqmND-47" value="Complete" style="rounded=0;whiteSpace=wrap;html=1;" vertex="1" parent="1">
          <mxGeometry x="1615" y="2792" width="120" height="40" as="geometry" />
        </mxCell>
      </root>
    </mxGraphModel>
  </diagram>
</mxfile>
